<svg width="768" height="234" viewBox="0 0 768 234" fill="none" xmlns="http://www.w3.org/2000/svg">
<rect x="2.11467" y="2.11467" width="763.771" height="229.292" rx="26.6448" fill="white" stroke="#429DFF" stroke-width="4.22934"/>
<path d="M257.787 108.416V78.1157H269.741C272.04 78.1157 273.997 78.5546 275.615 79.4324C277.233 80.3004 278.465 81.5086 279.314 83.0572C280.172 84.5958 280.601 86.3712 280.601 88.3833C280.601 90.3954 280.167 92.1708 279.299 93.7095C278.431 95.2481 277.173 96.4465 275.526 97.3046C273.889 98.1627 271.906 98.5918 269.579 98.5918H261.959V93.4579H268.543C269.776 93.4579 270.792 93.2459 271.591 92.8218C272.4 92.3878 273.001 91.7911 273.396 91.0316C273.8 90.2623 274.002 89.3795 274.002 88.3833C274.002 87.3773 273.8 86.4994 273.396 85.7498C273.001 84.9904 272.4 84.4035 271.591 83.9892C270.782 83.5651 269.756 83.3531 268.513 83.3531H264.193V108.416H257.787ZM290.513 108.845C289.063 108.845 287.771 108.593 286.637 108.09C285.503 107.577 284.605 106.823 283.944 105.826C283.293 104.82 282.968 103.568 282.968 102.069C282.968 100.806 283.2 99.7457 283.663 98.8876C284.127 98.0295 284.758 97.3391 285.557 96.8164C286.356 96.2936 287.263 95.8991 288.279 95.6328C289.305 95.3665 290.38 95.1791 291.505 95.0706C292.826 94.9325 293.892 94.8043 294.7 94.6859C295.509 94.5577 296.096 94.3703 296.461 94.1237C296.826 93.8771 297.008 93.5122 297.008 93.0289V92.9401C297.008 92.0031 296.712 91.2782 296.121 90.7653C295.539 90.2524 294.71 89.9959 293.635 89.9959C292.501 89.9959 291.598 90.2475 290.928 90.7505C290.257 91.2436 289.813 91.865 289.596 92.6146L283.767 92.1412C284.063 90.7603 284.645 89.5669 285.513 88.5608C286.381 87.5449 287.5 86.7657 288.871 86.2233C290.252 85.6709 291.85 85.3948 293.665 85.3948C294.927 85.3948 296.135 85.5427 297.289 85.8386C298.453 86.1345 299.484 86.5931 300.382 87.2145C301.289 87.8359 302.004 88.6348 302.527 89.6113C303.05 90.5779 303.311 91.7368 303.311 93.0881V108.416H297.334V105.264H297.156C296.791 105.974 296.303 106.601 295.692 107.143C295.08 107.676 294.345 108.095 293.487 108.401C292.629 108.697 291.638 108.845 290.513 108.845ZM292.318 104.495C293.245 104.495 294.064 104.312 294.774 103.947C295.484 103.573 296.042 103.07 296.446 102.438C296.85 101.807 297.053 101.092 297.053 100.293V97.8816C296.855 98.0098 296.584 98.1282 296.239 98.2367C295.904 98.3353 295.524 98.429 295.1 98.5178C294.676 98.5967 294.252 98.6707 293.827 98.7397C293.403 98.7989 293.019 98.8531 292.673 98.9024C291.934 99.0109 291.288 99.1835 290.735 99.4203C290.183 99.657 289.754 99.9775 289.448 100.382C289.142 100.776 288.989 101.27 288.989 101.861C288.989 102.72 289.3 103.375 289.922 103.829C290.553 104.273 291.352 104.495 292.318 104.495ZM308.201 108.416V85.6906H314.311V89.6557H314.548C314.962 88.2452 315.657 87.18 316.634 86.46C317.61 85.7301 318.735 85.3652 320.007 85.3652C320.323 85.3652 320.663 85.3849 321.028 85.4243C321.393 85.4638 321.713 85.518 321.989 85.5871V91.1795C321.693 91.0908 321.284 91.0119 320.761 90.9428C320.239 90.8738 319.76 90.8393 319.326 90.8393C318.399 90.8393 317.571 91.0415 316.841 91.4458C316.121 91.8404 315.549 92.3927 315.125 93.1029C314.71 93.813 314.503 94.6317 314.503 95.5588V108.416H308.201ZM338.475 85.6906V90.425H324.789V85.6906H338.475ZM327.896 80.2461H334.199V101.432C334.199 102.014 334.288 102.468 334.465 102.793C334.643 103.109 334.889 103.331 335.205 103.459C335.53 103.587 335.905 103.652 336.329 103.652C336.625 103.652 336.921 103.627 337.217 103.578C337.513 103.518 337.74 103.474 337.898 103.444L338.889 108.134C338.573 108.233 338.129 108.346 337.557 108.475C336.985 108.613 336.29 108.697 335.471 108.726C333.952 108.785 332.621 108.583 331.477 108.12C330.342 107.656 329.46 106.936 328.828 105.96C328.197 104.983 327.886 103.75 327.896 102.261V80.2461ZM342.58 108.416V85.6906H348.883V108.416H342.58ZM345.746 82.7613C344.809 82.7613 344.005 82.4506 343.335 81.8292C342.674 81.1979 342.343 80.4434 342.343 79.5656C342.343 78.6976 342.674 77.9529 343.335 77.3316C344.005 76.7003 344.809 76.3847 345.746 76.3847C346.683 76.3847 347.482 76.7003 348.143 77.3316C348.814 77.9529 349.149 78.6976 349.149 79.5656C349.149 80.4434 348.814 81.1979 348.143 81.8292C347.482 82.4506 346.683 82.7613 345.746 82.7613ZM362.305 108.785C360.579 108.785 359.016 108.342 357.615 107.454C356.225 106.556 355.12 105.24 354.301 103.504C353.493 101.758 353.088 99.6175 353.088 97.0827C353.088 94.4788 353.507 92.3138 354.346 90.5877C355.184 88.8518 356.299 87.5548 357.689 86.6967C359.09 85.8287 360.624 85.3948 362.291 85.3948C363.563 85.3948 364.623 85.6117 365.471 86.0457C366.33 86.4698 367.02 87.0025 367.543 87.6436C368.075 88.2748 368.48 88.8962 368.756 89.5077H368.948V78.1157H375.236V108.416H369.022V104.776H368.756C368.46 105.407 368.041 106.034 367.498 106.655C366.966 107.266 366.27 107.774 365.412 108.179C364.564 108.583 363.528 108.785 362.305 108.785ZM364.303 103.77C365.319 103.77 366.177 103.494 366.877 102.941C367.587 102.379 368.13 101.595 368.504 100.589C368.889 99.583 369.081 98.4043 369.081 97.0531C369.081 95.7018 368.894 94.5281 368.519 93.5319C368.144 92.5357 367.602 91.7664 366.892 91.2239C366.182 90.6814 365.319 90.4102 364.303 90.4102C363.267 90.4102 362.394 90.6913 361.684 91.2535C360.974 91.8157 360.436 92.5949 360.071 93.5911C359.706 94.5873 359.524 95.7413 359.524 97.0531C359.524 98.3748 359.706 99.5436 360.071 100.559C360.446 101.566 360.984 102.355 361.684 102.927C362.394 103.489 363.267 103.77 364.303 103.77ZM386.898 108.845C385.448 108.845 384.156 108.593 383.022 108.09C381.888 107.577 380.99 106.823 380.329 105.826C379.678 104.82 379.353 103.568 379.353 102.069C379.353 100.806 379.584 99.7457 380.048 98.8876C380.512 98.0295 381.143 97.3391 381.942 96.8164C382.741 96.2936 383.648 95.8991 384.664 95.6328C385.69 95.3665 386.765 95.1791 387.889 95.0706C389.211 94.9325 390.276 94.8043 391.085 94.6859C391.894 94.5577 392.481 94.3703 392.846 94.1237C393.211 93.8771 393.393 93.5122 393.393 93.0289V92.9401C393.393 92.0031 393.097 91.2782 392.505 90.7653C391.923 90.2524 391.095 89.9959 390.02 89.9959C388.886 89.9959 387.983 90.2475 387.312 90.7505C386.642 91.2436 386.198 91.865 385.981 92.6146L380.152 92.1412C380.448 90.7603 381.029 89.5669 381.897 88.5608C382.765 87.5449 383.885 86.7657 385.256 86.2233C386.637 85.6709 388.235 85.3948 390.049 85.3948C391.312 85.3948 392.52 85.5427 393.674 85.8386C394.838 86.1345 395.869 86.5931 396.766 87.2145C397.674 87.8359 398.389 88.6348 398.911 89.6113C399.434 90.5779 399.696 91.7368 399.696 93.0881V108.416H393.718V105.264H393.541C393.176 105.974 392.688 106.601 392.076 107.143C391.465 107.676 390.73 108.095 389.872 108.401C389.014 108.697 388.022 108.845 386.898 108.845ZM388.703 104.495C389.63 104.495 390.449 104.312 391.159 103.947C391.869 103.573 392.426 103.07 392.831 102.438C393.235 101.807 393.437 101.092 393.437 100.293V97.8816C393.24 98.0098 392.969 98.1282 392.624 98.2367C392.288 98.3353 391.909 98.429 391.484 98.5178C391.06 98.5967 390.636 98.6707 390.212 98.7397C389.788 98.7989 389.403 98.8531 389.058 98.9024C388.318 99.0109 387.672 99.1835 387.12 99.4203C386.568 99.657 386.139 99.9775 385.833 100.382C385.527 100.776 385.374 101.27 385.374 101.861C385.374 102.72 385.685 103.375 386.306 103.829C386.938 104.273 387.736 104.495 388.703 104.495ZM423.493 92.1708L417.723 92.5259C417.624 92.0327 417.412 91.5889 417.087 91.1943C416.761 90.7899 416.332 90.4694 415.8 90.2327C415.277 89.9861 414.651 89.8628 413.921 89.8628C412.944 89.8628 412.121 90.0699 411.45 90.4842C410.779 90.8886 410.444 91.431 410.444 92.1116C410.444 92.6541 410.661 93.1127 411.095 93.4875C411.529 93.8623 412.274 94.1632 413.329 94.39L417.442 95.2185C419.651 95.6722 421.299 96.4021 422.383 97.4082C423.468 98.4142 424.011 99.7359 424.011 101.373C424.011 102.863 423.572 104.169 422.694 105.294C421.826 106.418 420.633 107.296 419.114 107.927C417.605 108.549 415.864 108.859 413.891 108.859C410.883 108.859 408.486 108.233 406.701 106.98C404.926 105.718 403.885 104.002 403.579 101.832L409.778 101.506C409.966 102.424 410.419 103.124 411.139 103.607C411.859 104.081 412.782 104.317 413.906 104.317C415.011 104.317 415.898 104.105 416.569 103.681C417.25 103.247 417.595 102.69 417.605 102.009C417.595 101.437 417.353 100.969 416.88 100.604C416.406 100.229 415.676 99.943 414.69 99.7457L410.755 98.9616C408.536 98.5178 406.883 97.7484 405.798 96.6536C404.723 95.5588 404.186 94.1632 404.186 92.4667C404.186 91.0069 404.58 89.7494 405.369 88.694C406.168 87.6386 407.288 86.8249 408.728 86.2529C410.178 85.6808 411.874 85.3948 413.817 85.3948C416.687 85.3948 418.946 86.0013 420.593 87.2145C422.25 88.4277 423.217 90.0798 423.493 92.1708ZM268.025 149.859C265.688 149.859 263.676 149.386 261.989 148.439C260.312 147.482 259.02 146.131 258.113 144.385C257.205 142.63 256.752 140.553 256.752 138.157C256.752 135.819 257.205 133.768 258.113 132.002C259.02 130.236 260.297 128.861 261.945 127.874C263.602 126.888 265.545 126.395 267.774 126.395C269.273 126.395 270.669 126.636 271.961 127.12C273.263 127.593 274.397 128.308 275.363 129.265C276.34 130.222 277.099 131.425 277.642 132.875C278.184 134.315 278.456 136.002 278.456 137.935V139.666H259.267V135.76H272.523C272.523 134.852 272.326 134.049 271.931 133.348C271.537 132.648 270.989 132.101 270.289 131.706C269.598 131.302 268.795 131.1 267.877 131.1C266.921 131.1 266.072 131.321 265.333 131.765C264.603 132.199 264.031 132.786 263.616 133.526C263.202 134.256 262.99 135.069 262.98 135.967V139.681C262.98 140.805 263.187 141.776 263.602 142.595C264.026 143.414 264.622 144.045 265.392 144.489C266.161 144.933 267.073 145.155 268.129 145.155C268.829 145.155 269.47 145.056 270.052 144.859C270.634 144.661 271.132 144.366 271.546 143.971C271.961 143.576 272.276 143.093 272.493 142.521L278.322 142.906C278.027 144.306 277.42 145.529 276.503 146.575C275.595 147.611 274.422 148.419 272.981 149.001C271.551 149.573 269.899 149.859 268.025 149.859ZM301.476 133.171L295.706 133.526C295.608 133.033 295.396 132.589 295.07 132.194C294.745 131.79 294.316 131.469 293.783 131.233C293.26 130.986 292.634 130.863 291.904 130.863C290.928 130.863 290.104 131.07 289.433 131.484C288.763 131.889 288.427 132.431 288.427 133.112C288.427 133.654 288.644 134.113 289.078 134.488C289.512 134.862 290.257 135.163 291.312 135.39L295.425 136.219C297.635 136.672 299.282 137.402 300.367 138.408C301.452 139.414 301.994 140.736 301.994 142.373C301.994 143.863 301.555 145.169 300.677 146.294C299.809 147.418 298.616 148.296 297.097 148.927C295.588 149.549 293.847 149.859 291.874 149.859C288.866 149.859 286.469 149.233 284.684 147.98C282.909 146.718 281.868 145.002 281.562 142.832L287.762 142.506C287.949 143.424 288.403 144.124 289.123 144.607C289.843 145.081 290.765 145.317 291.889 145.317C292.994 145.317 293.882 145.105 294.552 144.681C295.233 144.247 295.578 143.69 295.588 143.009C295.578 142.437 295.336 141.969 294.863 141.604C294.39 141.229 293.66 140.943 292.673 140.746L288.738 139.962C286.519 139.518 284.867 138.748 283.782 137.654C282.707 136.559 282.169 135.163 282.169 133.467C282.169 132.007 282.564 130.749 283.353 129.694C284.152 128.639 285.271 127.825 286.711 127.253C288.161 126.681 289.857 126.395 291.801 126.395C294.671 126.395 296.929 127.001 298.577 128.215C300.234 129.428 301.2 131.08 301.476 133.171ZM305.963 157.937V126.691H312.177V130.508H312.458C312.734 129.896 313.133 129.275 313.656 128.644C314.189 128.002 314.879 127.47 315.727 127.046C316.586 126.612 317.651 126.395 318.923 126.395C320.58 126.395 322.109 126.829 323.51 127.697C324.91 128.555 326.03 129.852 326.868 131.588C327.706 133.314 328.126 135.479 328.126 138.083C328.126 140.618 327.716 142.758 326.898 144.504C326.089 146.24 324.984 147.556 323.584 148.454C322.193 149.342 320.634 149.785 318.908 149.785C317.685 149.785 316.645 149.583 315.787 149.179C314.938 148.774 314.243 148.266 313.701 147.655C313.158 147.034 312.744 146.407 312.458 145.776H312.265V157.937H305.963ZM312.132 138.053C312.132 139.404 312.32 140.583 312.695 141.589C313.069 142.595 313.612 143.379 314.322 143.941C315.032 144.494 315.895 144.77 316.911 144.77C317.937 144.77 318.805 144.489 319.515 143.927C320.225 143.355 320.763 142.566 321.128 141.559C321.502 140.544 321.69 139.375 321.69 138.053C321.69 136.741 321.507 135.587 321.142 134.591C320.777 133.595 320.24 132.816 319.53 132.254C318.82 131.691 317.947 131.41 316.911 131.41C315.885 131.41 315.017 131.681 314.307 132.224C313.607 132.766 313.069 133.536 312.695 134.532C312.32 135.528 312.132 136.702 312.132 138.053ZM342.595 149.859C340.297 149.859 338.309 149.371 336.633 148.395C334.966 147.408 333.679 146.037 332.771 144.282C331.864 142.516 331.41 140.47 331.41 138.142C331.41 135.794 331.864 133.743 332.771 131.987C333.679 130.222 334.966 128.851 336.633 127.874C338.309 126.888 340.297 126.395 342.595 126.395C344.893 126.395 346.876 126.888 348.542 127.874C350.219 128.851 351.511 130.222 352.419 131.987C353.326 133.743 353.78 135.794 353.78 138.142C353.78 140.47 353.326 142.516 352.419 144.282C351.511 146.037 350.219 147.408 348.542 148.395C346.876 149.371 344.893 149.859 342.595 149.859ZM342.624 144.977C343.67 144.977 344.543 144.681 345.243 144.089C345.943 143.488 346.471 142.669 346.826 141.633C347.191 140.598 347.374 139.419 347.374 138.097C347.374 136.776 347.191 135.597 346.826 134.562C346.471 133.526 345.943 132.707 345.243 132.106C344.543 131.504 343.67 131.203 342.624 131.203C341.569 131.203 340.681 131.504 339.961 132.106C339.251 132.707 338.714 133.526 338.349 134.562C337.994 135.597 337.816 136.776 337.816 138.097C337.816 139.419 337.994 140.598 338.349 141.633C338.714 142.669 339.251 143.488 339.961 144.089C340.681 144.681 341.569 144.977 342.624 144.977ZM357.878 149.416V126.691H363.988V130.656H364.225C364.639 129.245 365.335 128.18 366.311 127.46C367.287 126.73 368.412 126.365 369.684 126.365C370 126.365 370.34 126.385 370.705 126.424C371.07 126.464 371.391 126.518 371.667 126.587V132.18C371.371 132.091 370.962 132.012 370.439 131.943C369.916 131.874 369.438 131.839 369.004 131.839C368.077 131.839 367.248 132.041 366.518 132.446C365.798 132.84 365.226 133.393 364.802 134.103C364.388 134.813 364.181 135.632 364.181 136.559V149.416H357.878ZM388.152 126.691V131.425H374.467V126.691H388.152ZM377.574 121.246H383.876V142.432C383.876 143.014 383.965 143.468 384.143 143.793C384.32 144.109 384.567 144.331 384.882 144.459C385.208 144.587 385.583 144.652 386.007 144.652C386.303 144.652 386.598 144.627 386.894 144.578C387.19 144.518 387.417 144.474 387.575 144.444L388.566 149.134C388.251 149.233 387.807 149.346 387.235 149.475C386.663 149.613 385.967 149.697 385.149 149.726C383.63 149.785 382.298 149.583 381.154 149.12C380.02 148.656 379.137 147.936 378.506 146.96C377.874 145.983 377.564 144.75 377.574 143.261V121.246ZM392.257 149.416V126.691H398.56V149.416H392.257ZM395.424 123.761C394.487 123.761 393.683 123.451 393.012 122.829C392.351 122.198 392.021 121.443 392.021 120.566C392.021 119.698 392.351 118.953 393.012 118.332C393.683 117.7 394.487 117.385 395.424 117.385C396.361 117.385 397.16 117.7 397.82 118.332C398.491 118.953 398.826 119.698 398.826 120.566C398.826 121.443 398.491 122.198 397.82 122.829C397.16 123.451 396.361 123.761 395.424 123.761ZM424.795 126.691L416.85 149.416H409.749L401.804 126.691H408.462L413.181 142.95H413.418L418.123 126.691H424.795ZM433.89 149.845C432.44 149.845 431.148 149.593 430.014 149.09C428.88 148.577 427.982 147.823 427.321 146.826C426.67 145.82 426.345 144.568 426.345 143.069C426.345 141.806 426.577 140.746 427.04 139.888C427.504 139.03 428.135 138.339 428.934 137.816C429.733 137.294 430.64 136.899 431.656 136.633C432.682 136.366 433.757 136.179 434.881 136.071C436.203 135.932 437.268 135.804 438.077 135.686C438.886 135.558 439.473 135.37 439.838 135.124C440.203 134.877 440.385 134.512 440.385 134.029V133.94C440.385 133.003 440.089 132.278 439.497 131.765C438.915 131.252 438.087 130.996 437.012 130.996C435.878 130.996 434.975 131.247 434.304 131.75C433.634 132.244 433.19 132.865 432.973 133.615L427.144 133.141C427.44 131.76 428.022 130.567 428.89 129.561C429.757 128.545 430.877 127.766 432.248 127.223C433.629 126.671 435.227 126.395 437.041 126.395C438.304 126.395 439.512 126.543 440.666 126.839C441.83 127.134 442.861 127.593 443.758 128.215C444.666 128.836 445.381 129.635 445.904 130.611C446.426 131.578 446.688 132.737 446.688 134.088V149.416H440.711V146.264H440.533C440.168 146.974 439.68 147.601 439.068 148.143C438.457 148.676 437.722 149.095 436.864 149.401C436.006 149.697 435.015 149.845 433.89 149.845ZM435.695 145.495C436.622 145.495 437.441 145.312 438.151 144.947C438.861 144.573 439.419 144.07 439.823 143.438C440.227 142.807 440.429 142.092 440.429 141.293V138.882C440.232 139.01 439.961 139.128 439.616 139.237C439.28 139.335 438.901 139.429 438.477 139.518C438.052 139.597 437.628 139.671 437.204 139.74C436.78 139.799 436.395 139.853 436.05 139.902C435.31 140.011 434.664 140.184 434.112 140.42C433.56 140.657 433.131 140.978 432.825 141.382C432.519 141.776 432.366 142.27 432.366 142.861C432.366 143.72 432.677 144.375 433.298 144.829C433.93 145.273 434.729 145.495 435.695 145.495ZM470.485 133.171L464.715 133.526C464.617 133.033 464.405 132.589 464.079 132.194C463.754 131.79 463.325 131.469 462.792 131.233C462.269 130.986 461.643 130.863 460.913 130.863C459.936 130.863 459.113 131.07 458.442 131.484C457.772 131.889 457.436 132.431 457.436 133.112C457.436 133.654 457.653 134.113 458.087 134.488C458.521 134.862 459.266 135.163 460.321 135.39L464.434 136.219C466.643 136.672 468.291 137.402 469.376 138.408C470.461 139.414 471.003 140.736 471.003 142.373C471.003 143.863 470.564 145.169 469.686 146.294C468.818 147.418 467.625 148.296 466.106 148.927C464.597 149.549 462.856 149.859 460.883 149.859C457.875 149.859 455.478 149.233 453.693 147.98C451.918 146.718 450.877 145.002 450.571 142.832L456.77 142.506C456.958 143.424 457.412 144.124 458.132 144.607C458.852 145.081 459.774 145.317 460.898 145.317C462.003 145.317 462.891 145.105 463.561 144.681C464.242 144.247 464.587 143.69 464.597 143.009C464.587 142.437 464.345 141.969 463.872 141.604C463.398 141.229 462.669 140.943 461.682 140.746L457.747 139.962C455.528 139.518 453.876 138.748 452.791 137.654C451.715 136.559 451.178 135.163 451.178 133.467C451.178 132.007 451.572 130.749 452.362 129.694C453.16 128.639 454.28 127.825 455.72 127.253C457.17 126.681 458.866 126.395 460.809 126.395C463.68 126.395 465.938 127.001 467.585 128.215C469.242 129.428 470.209 131.08 470.485 133.171Z" fill="#145ABB"/>
<path d="M103.17 39.8517C101.515 40.9943 101.003 41.8611 99.742 45.7618C96.8264 54.5482 91.3497 62.4284 85.4789 66.1715C82.5633 68.0627 79.7658 69.1265 76.1015 69.8358C71.4128 70.742 69.6398 72.5544 69.167 76.9673C68.6942 81.3802 69.2852 96.8253 70.1914 103.484C76.4955 150.844 99.2298 188.432 134.415 209.788C136.936 211.324 140.364 213.216 142.019 214.043L145.092 215.58L148.717 213.728C150.727 212.703 154.352 210.615 156.834 209.078C192.925 186.659 215.738 146.786 220.506 97.574C221.136 91.3092 221.254 78.3069 220.742 75.5489C220.072 72.1998 218.22 70.6238 213.808 69.7964C203.248 67.7869 194.738 59.0793 190.364 45.7618C189.103 41.8611 188.591 40.9943 186.936 39.8517L185.439 38.8667H163.099H140.758L139.97 39.8911C138.867 41.2701 138.946 42.925 140.089 44.2646L141.034 45.3678L162.114 45.486L183.193 45.6436L184.021 48.2441C185.36 52.4206 188.906 59.3157 191.428 62.7436C196.944 70.1116 204.903 75.4307 212.192 76.4945C214.359 76.8491 214.399 76.8885 214.399 83.9807C214.399 101.908 210.971 121.293 204.864 137.763C198.008 156.124 188.315 171.608 174.998 185.202C166.802 193.594 158.016 200.647 148.56 206.517L145.014 208.724L143.162 207.66C135.085 202.971 124.328 194.618 116.881 187.211C105.928 176.376 98.0084 165.422 91.3103 151.75C84.8879 138.708 81.0266 127.006 78.308 112.152C76.4561 101.947 75.1953 85.5173 75.8651 79.4102L76.1409 76.8097L79.5294 75.9823C91.4285 73.0272 100.569 63.6498 105.889 48.9139L107.149 45.3678L119.364 45.2496C131.105 45.1708 131.578 45.1314 132.287 44.3434C133.272 43.2796 133.272 40.7579 132.287 39.6941C131.539 38.9061 131.223 38.8667 118.103 38.8667H104.667L103.17 39.8517Z" fill="#145ABB"/>
<path d="M111.484 51.9477C111.129 52.2235 110.223 53.7996 109.513 55.415C104.155 67.5111 96.2354 75.8247 85.9124 80.0799C81.4207 81.9318 81.4207 81.8924 81.7359 90.2848C82.8391 117.984 91.9013 145.722 106.637 166.525C113.572 176.257 123.067 186.068 132.405 193.042C138.079 197.298 144.147 201.198 145.092 201.198C146.55 201.198 156.125 194.815 161.798 190.048C166.96 185.714 174.013 178.425 178.307 173.027C181.854 168.574 188.433 158.921 189.97 156.005C191.507 153.011 190.088 150.568 186.976 150.844C185.281 150.962 185.439 150.765 179.726 159.433C177.835 162.349 175.037 166.25 173.579 168.102C169.994 172.593 161.483 181.222 156.873 185.123C152.46 188.866 145.762 193.712 145.053 193.712C144.383 193.712 137.134 188.393 132.721 184.65C128.347 180.946 121.176 173.736 117.748 169.599C100.964 149.268 90.9557 123.421 88.7098 94.6583C88.04 86.1477 87.9218 86.7387 90.7981 85.3203C101.161 80.1194 109.592 71.53 114.439 61.2463L116.093 57.7791H145.053H174.013L175.668 61.2463C180.514 71.53 188.946 80.1194 199.387 85.3597L201.869 86.6205L201.633 91.388C200.687 107.7 196.944 124.327 190.916 138.905C189.34 142.649 189.379 143.949 191.073 145.288C192.216 146.155 194.225 146.155 195.329 145.249C196.077 144.619 200.293 133.705 201.948 128.07C205.888 114.753 207.858 103.051 208.37 89.6938C208.607 83.1926 208.607 83.1532 207.661 82.1288C207.149 81.5378 205.376 80.5134 203.721 79.8435C193.989 75.9035 185.872 67.3141 180.593 55.415C179.883 53.7996 178.977 52.2235 178.623 51.9477C178.15 51.5931 170.821 51.4749 145.053 51.4749C119.285 51.4749 111.956 51.5931 111.484 51.9477Z" fill="#145ABB"/>
<path d="M138.552 69.6388C125.156 71.5694 113.06 79.9224 106.243 91.9003C104.352 95.2099 103.997 97.1406 105.061 98.6378C105.889 99.7804 107.74 100.135 109.198 99.4258L110.341 98.8348L111.129 100.844C112.469 104.469 112.902 106.242 112.508 106.557C112.311 106.754 111.09 107.779 109.75 108.921C107.622 110.694 107.346 110.852 107.504 109.985C108.174 106.557 104.273 104.036 101.909 106.4C100.727 107.582 100.333 110.537 100.648 116.289C101.673 134.099 112.981 149.426 129.49 155.336C135.282 157.385 139.379 157.976 146.826 157.739C153.879 157.542 157.267 156.833 163.099 154.39C174.722 149.544 184.218 138.59 187.803 125.982C189.615 119.52 190.009 113.61 188.985 107.03C186.818 92.6095 177.913 80.3558 164.951 73.9335C156.795 69.9146 147.378 68.378 138.552 69.6388ZM152.894 76.8097L155.021 77.2825L150.096 80.3558C147.378 82.0107 145.053 83.3897 144.895 83.3897C144.738 83.3897 142.492 82.0107 139.852 80.3558L135.085 77.3219L136.345 76.9673C140.68 75.8641 148.481 75.7853 152.894 76.8097ZM134.809 85.2415L141.507 89.4968V92.4519L141.468 95.4069L134.178 100.844L126.85 106.282L123.186 105.415C119.758 104.587 119.521 104.469 119.127 103.327C118.93 102.657 117.866 99.5834 116.763 96.5102L114.754 90.8758L117.985 87.6056C121.531 83.9807 126.338 80.5134 127.401 80.7892C127.795 80.868 131.105 82.8775 134.809 85.2415ZM165.778 82.2471C169.048 84.5323 171.964 87.0934 173.382 88.8664L174.604 90.403L172.437 96.786C171.255 100.293 170.112 103.484 169.876 103.839C169.639 104.312 168.457 104.784 166.408 105.218L163.296 105.888L155.849 100.647L148.402 95.3675L148.284 92.4125L148.205 89.4968L155.179 85.0839C159.04 82.6805 162.468 80.671 162.823 80.671C163.177 80.6316 164.478 81.3802 165.778 82.2471ZM180.12 99.741C181.026 101.908 181.932 105.178 182.405 108.291L182.76 110.537L180.553 108.961C179.332 108.133 177.913 107.109 177.401 106.676L176.495 105.966L177.795 101.987C178.504 99.7804 179.174 97.968 179.214 97.968C179.292 97.968 179.686 98.756 180.12 99.741ZM151.791 106.085C155.337 108.606 158.331 110.734 158.41 110.813C158.568 110.97 154.115 125.706 153.721 126.337C153.603 126.494 149.821 126.77 145.25 126.928L136.976 127.203L134.257 119.244C131.657 111.64 131.578 111.285 132.287 110.773C132.721 110.497 135.597 108.291 138.749 105.927C141.901 103.524 144.659 101.553 144.895 101.553C145.132 101.514 148.205 103.563 151.791 106.085ZM121.373 111.916C123.225 112.389 124.88 113.059 125.037 113.374C125.195 113.689 126.574 117.511 128.071 121.845L130.751 129.765L128.741 132.759L126.732 135.753L120.585 135.793H114.439L113.414 134.296C111.759 131.774 110.144 128.267 109.08 124.958C107.346 119.402 107.11 119.954 112.744 115.186C115.463 112.901 117.748 111.01 117.866 111.01C117.985 111.01 119.561 111.404 121.373 111.916ZM176.574 114.556C179.292 116.526 181.735 118.338 182.05 118.653C183.114 119.717 180.08 128.819 177.047 133.626L175.51 136.029L169.285 135.478C162.389 134.887 162.862 135.123 160.971 131.616L159.868 129.607L162.35 121.569C163.729 117.156 164.99 113.256 165.148 112.94C165.463 112.428 169.442 111.128 171.058 111.01C171.373 110.97 173.855 112.586 176.574 114.556ZM155.652 136.108L157.228 138.748L155.928 144.382C155.219 147.456 154.509 150.095 154.391 150.214C154.273 150.371 152.224 150.726 149.899 151.08C146.353 151.593 144.974 151.593 141.507 151.238C135.36 150.529 135.991 151.041 134.06 145.21C133.154 142.412 132.445 139.891 132.524 139.615C132.602 139.378 133.43 137.96 134.415 136.502L136.188 133.862L138.355 133.705C139.537 133.626 143.556 133.547 147.299 133.508L154.076 133.429L155.652 136.108ZM168.418 142.097C169.403 142.097 169.521 142.176 169.088 142.688C168.378 143.555 162.705 147.298 162.508 147.061C162.311 146.904 162.941 143.634 163.414 142.136C163.532 141.742 164.044 141.664 165.423 141.861C166.408 141.979 167.748 142.097 168.418 142.097ZM126.653 144.54C127.007 145.682 127.204 146.667 127.126 146.786C126.889 146.983 121.531 143.397 121.176 142.846C121.058 142.649 122.082 142.491 123.501 142.491H125.983L126.653 144.54Z" fill="#145ABB"/>
</svg>
