<svg width="768" height="234" viewBox="0 0 768 234" fill="none" xmlns="http://www.w3.org/2000/svg">
<rect x="2.11467" y="2.11467" width="763.771" height="229.292" rx="26.6448" fill="white" stroke="#429DFF" stroke-width="4.22934"/>
<path d="M332.335 94.3839H325.855C325.737 93.5455 325.495 92.8008 325.13 92.1498C324.765 91.489 324.297 90.9268 323.724 90.4632C323.152 89.9997 322.492 89.6446 321.742 89.398C321.002 89.1514 320.198 89.0281 319.33 89.0281C317.762 89.0281 316.396 89.4177 315.232 90.1969C314.068 90.9663 313.166 92.0907 312.525 93.5702C311.884 95.0398 311.563 96.825 311.563 98.9259C311.563 101.086 311.884 102.901 312.525 104.37C313.176 105.84 314.083 106.95 315.247 107.699C316.411 108.449 317.757 108.824 319.286 108.824C320.144 108.824 320.938 108.71 321.668 108.483C322.408 108.257 323.064 107.926 323.636 107.492C324.208 107.048 324.681 106.511 325.056 105.879C325.441 105.248 325.707 104.528 325.855 103.719L332.335 103.749C332.167 105.14 331.748 106.481 331.077 107.773C330.417 109.055 329.524 110.204 328.4 111.22C327.285 112.226 325.954 113.025 324.405 113.617C322.866 114.199 321.125 114.49 319.182 114.49C316.48 114.49 314.063 113.879 311.933 112.656C309.812 111.432 308.136 109.662 306.903 107.344C305.68 105.026 305.068 102.22 305.068 98.9259C305.068 95.6217 305.69 92.8107 306.932 90.4928C308.175 88.175 309.862 86.4094 311.992 85.1963C314.123 83.9732 316.519 83.3617 319.182 83.3617C320.938 83.3617 322.566 83.6083 324.065 84.1015C325.574 84.5946 326.91 85.3146 328.074 86.2615C329.238 87.1985 330.185 88.3476 330.915 89.7087C331.654 91.0698 332.128 92.6282 332.335 94.3839ZM336.81 114.076V91.3509H343.113V114.076H336.81ZM339.977 88.4215C339.04 88.4215 338.236 88.1109 337.565 87.4895C336.904 86.8582 336.574 86.1037 336.574 85.2259C336.574 84.3579 336.904 83.6132 337.565 82.9918C338.236 82.3606 339.04 82.045 339.977 82.045C340.914 82.045 341.713 82.3606 342.373 82.9918C343.044 83.6132 343.379 84.3579 343.379 85.2259C343.379 86.1037 343.044 86.8582 342.373 87.4895C341.713 88.1109 340.914 88.4215 339.977 88.4215ZM354.464 100.938V114.076H348.162V91.3509H354.169V95.3603H354.435C354.938 94.0387 355.781 92.9932 356.965 92.2238C358.148 91.4446 359.583 91.055 361.27 91.055C362.848 91.055 364.224 91.4002 365.398 92.0907C366.572 92.7811 367.484 93.7674 368.135 95.0496C368.786 96.322 369.111 97.8409 369.111 99.6064V114.076H362.809V100.731C362.819 99.3401 362.464 98.2552 361.743 97.476C361.023 96.6869 360.032 96.2924 358.77 96.2924C357.921 96.2924 357.172 96.4749 356.521 96.8398C355.88 97.2048 355.377 97.7374 355.012 98.4377C354.657 99.1281 354.474 99.9615 354.464 100.938ZM384.435 114.52C382.098 114.52 380.085 114.046 378.399 113.099C376.722 112.143 375.43 110.791 374.523 109.046C373.615 107.29 373.161 105.214 373.161 102.817C373.161 100.479 373.615 98.4278 374.523 96.6623C375.43 94.8968 376.707 93.5208 378.354 92.5345C380.011 91.5482 381.954 91.055 384.184 91.055C385.683 91.055 387.078 91.2967 388.371 91.78C389.672 92.2534 390.807 92.9685 391.773 93.9252C392.75 94.882 393.509 96.0853 394.052 97.5352C394.594 98.9752 394.865 100.662 394.865 102.595V104.326H375.677V100.42H388.933C388.933 99.5127 388.735 98.7089 388.341 98.0086C387.946 97.3083 387.399 96.7609 386.699 96.3664C386.008 95.962 385.204 95.7598 384.287 95.7598C383.33 95.7598 382.482 95.9817 381.742 96.4256C381.013 96.8595 380.44 97.4464 380.026 98.1861C379.612 98.916 379.4 99.7297 379.39 100.627V104.341C379.39 105.465 379.597 106.437 380.011 107.255C380.436 108.074 381.032 108.705 381.802 109.149C382.571 109.593 383.483 109.815 384.539 109.815C385.239 109.815 385.88 109.716 386.462 109.519C387.044 109.322 387.542 109.026 387.956 108.631C388.371 108.237 388.686 107.753 388.903 107.181L394.732 107.566C394.436 108.967 393.83 110.19 392.913 111.235C392.005 112.271 390.831 113.08 389.391 113.662C387.961 114.234 386.309 114.52 384.435 114.52ZM398.978 114.076V91.3509H404.985V95.3603H405.251C405.725 94.0288 406.514 92.9784 407.619 92.209C408.723 91.4397 410.045 91.055 411.584 91.055C413.142 91.055 414.469 91.4446 415.563 92.2238C416.658 92.9932 417.388 94.0387 417.753 95.3603H417.99C418.453 94.0584 419.292 93.0178 420.505 92.2386C421.728 91.4496 423.173 91.055 424.84 91.055C426.96 91.055 428.682 91.7307 430.003 93.0819C431.335 94.4233 432.001 96.3269 432.001 98.7927V114.076H425.713V100.035C425.713 98.773 425.377 97.8261 424.707 97.1949C424.036 96.5636 423.198 96.248 422.192 96.248C421.047 96.248 420.155 96.613 419.514 97.3428C418.873 98.0629 418.552 99.0147 418.552 100.198V114.076H412.442V99.9023C412.442 98.7878 412.121 97.9001 411.48 97.2393C410.849 96.5784 410.015 96.248 408.98 96.248C408.279 96.248 407.648 96.4256 407.086 96.7806C406.534 97.1258 406.095 97.6141 405.769 98.2453C405.444 98.8667 405.281 99.5966 405.281 100.435V114.076H398.978ZM443.459 114.505C442.009 114.505 440.717 114.253 439.583 113.75C438.449 113.237 437.551 112.483 436.89 111.487C436.239 110.481 435.914 109.228 435.914 107.729C435.914 106.466 436.146 105.406 436.609 104.548C437.073 103.69 437.704 102.999 438.503 102.477C439.302 101.954 440.209 101.559 441.225 101.293C442.251 101.027 443.326 100.839 444.45 100.731C445.772 100.593 446.837 100.465 447.646 100.346C448.455 100.218 449.042 100.031 449.407 99.784C449.772 99.5374 449.954 99.1725 449.954 98.6892V98.6004C449.954 97.6634 449.658 96.9384 449.066 96.4256C448.484 95.9127 447.656 95.6562 446.581 95.6562C445.447 95.6562 444.544 95.9077 443.873 96.4108C443.203 96.9039 442.759 97.5253 442.542 98.2749L436.713 97.8015C437.009 96.4206 437.59 95.2272 438.458 94.2211C439.326 93.2052 440.446 92.426 441.817 91.8835C443.198 91.3312 444.796 91.055 446.61 91.055C447.873 91.055 449.081 91.203 450.235 91.4989C451.399 91.7948 452.43 92.2534 453.327 92.8748C454.235 93.4962 454.95 94.2951 455.473 95.2716C455.995 96.2382 456.257 97.3971 456.257 98.7483V114.076H450.28V110.925H450.102C449.737 111.635 449.249 112.261 448.637 112.803C448.026 113.336 447.291 113.755 446.433 114.061C445.575 114.357 444.584 114.505 443.459 114.505ZM445.264 110.155C446.191 110.155 447.01 109.973 447.72 109.608C448.43 109.233 448.987 108.73 449.392 108.099C449.796 107.467 449.998 106.752 449.998 105.953V103.542C449.801 103.67 449.53 103.788 449.185 103.897C448.849 103.996 448.47 104.089 448.046 104.178C447.621 104.257 447.197 104.331 446.773 104.4C446.349 104.459 445.964 104.513 445.619 104.563C444.879 104.671 444.233 104.844 443.681 105.081C443.129 105.317 442.7 105.638 442.394 106.042C442.088 106.437 441.935 106.93 441.935 107.522C441.935 108.38 442.246 109.036 442.867 109.489C443.499 109.933 444.297 110.155 445.264 110.155ZM480.054 97.8311L474.284 98.1861C474.186 97.693 473.973 97.2491 473.648 96.8546C473.323 96.4502 472.893 96.1297 472.361 95.8929C471.838 95.6464 471.212 95.5231 470.482 95.5231C469.505 95.5231 468.682 95.7302 468.011 96.1445C467.34 96.5488 467.005 97.0913 467.005 97.7719C467.005 98.3144 467.222 98.773 467.656 99.1478C468.09 99.5226 468.835 99.8234 469.89 100.05L474.003 100.879C476.212 101.333 477.86 102.062 478.945 103.068C480.03 104.074 480.572 105.396 480.572 107.033C480.572 108.523 480.133 109.83 479.255 110.954C478.387 112.079 477.194 112.956 475.675 113.588C474.166 114.209 472.425 114.52 470.452 114.52C467.444 114.52 465.047 113.893 463.262 112.641C461.487 111.378 460.446 109.662 460.14 107.492L466.339 107.167C466.527 108.084 466.98 108.784 467.7 109.267C468.42 109.741 469.343 109.978 470.467 109.978C471.572 109.978 472.459 109.766 473.13 109.341C473.811 108.907 474.156 108.35 474.166 107.67C474.156 107.098 473.914 106.629 473.441 106.264C472.967 105.889 472.238 105.603 471.251 105.406L467.316 104.622C465.097 104.178 463.444 103.409 462.36 102.314C461.284 101.219 460.747 99.8234 460.747 98.127C460.747 96.6672 461.141 95.4096 461.93 94.3543C462.729 93.2989 463.849 92.4852 465.289 91.9131C466.739 91.3411 468.435 91.055 470.378 91.055C473.249 91.055 475.507 91.6616 477.154 92.8748C478.811 94.088 479.778 95.7401 480.054 97.8311ZM504.54 114.52C502.202 114.52 500.19 114.046 498.503 113.099C496.827 112.143 495.534 110.791 494.627 109.046C493.72 107.29 493.266 105.214 493.266 102.817C493.266 100.479 493.72 98.4278 494.627 96.6623C495.534 94.8968 496.812 93.5208 498.459 92.5345C500.116 91.5482 502.059 91.055 504.288 91.055C505.787 91.055 507.183 91.2967 508.475 91.78C509.777 92.2534 510.911 92.9685 511.878 93.9252C512.854 94.882 513.614 96.0853 514.156 97.5352C514.699 98.9752 514.97 100.662 514.97 102.595V104.326H495.781V100.42H509.037C509.037 99.5127 508.84 98.7089 508.445 98.0086C508.051 97.3083 507.504 96.7609 506.803 96.3664C506.113 95.962 505.309 95.7598 504.392 95.7598C503.435 95.7598 502.587 95.9817 501.847 96.4256C501.117 96.8595 500.545 97.4464 500.131 98.1861C499.717 98.916 499.504 99.7297 499.495 100.627V104.341C499.495 105.465 499.702 106.437 500.116 107.255C500.54 108.074 501.137 108.705 501.906 109.149C502.675 109.593 503.588 109.815 504.643 109.815C505.343 109.815 505.985 109.716 506.567 109.519C507.148 109.322 507.647 109.026 508.061 108.631C508.475 108.237 508.791 107.753 509.008 107.181L514.837 107.566C514.541 108.967 513.934 110.19 513.017 111.235C512.11 112.271 510.936 113.08 509.496 113.662C508.066 114.234 506.414 114.52 504.54 114.52ZM305.482 155.076V132.351H311.489V136.36H311.755C312.229 135.029 313.018 133.978 314.123 133.209C315.227 132.44 316.549 132.055 318.088 132.055C319.646 132.055 320.973 132.445 322.067 133.224C323.162 133.993 323.892 135.039 324.257 136.36H324.494C324.957 135.058 325.796 134.018 327.009 133.239C328.232 132.45 329.677 132.055 331.344 132.055C333.464 132.055 335.186 132.731 336.507 134.082C337.839 135.423 338.504 137.327 338.504 139.793V155.076H332.217V141.035C332.217 139.773 331.881 138.826 331.211 138.195C330.54 137.564 329.702 137.248 328.696 137.248C327.551 137.248 326.659 137.613 326.018 138.343C325.377 139.063 325.056 140.015 325.056 141.198V155.076H318.946V140.902C318.946 139.788 318.625 138.9 317.984 138.239C317.353 137.578 316.519 137.248 315.484 137.248C314.783 137.248 314.152 137.426 313.59 137.781C313.038 138.126 312.599 138.614 312.273 139.245C311.948 139.867 311.785 140.597 311.785 141.435V155.076H305.482ZM358.056 145.4V132.351H364.358V155.076H358.307V150.948H358.071C357.558 152.28 356.705 153.35 355.511 154.159C354.328 154.967 352.883 155.372 351.176 155.372C349.657 155.372 348.321 155.026 347.167 154.336C346.013 153.646 345.11 152.664 344.459 151.392C343.818 150.12 343.493 148.596 343.483 146.82V132.351H349.786V145.696C349.795 147.037 350.155 148.098 350.866 148.877C351.576 149.656 352.528 150.046 353.721 150.046C354.48 150.046 355.191 149.873 355.851 149.528C356.512 149.173 357.045 148.65 357.449 147.959C357.864 147.269 358.066 146.416 358.056 145.4ZM388.308 138.831L382.538 139.186C382.439 138.693 382.227 138.249 381.901 137.855C381.576 137.45 381.147 137.13 380.614 136.893C380.092 136.646 379.465 136.523 378.735 136.523C377.759 136.523 376.935 136.73 376.265 137.144C375.594 137.549 375.259 138.091 375.259 138.772C375.259 139.314 375.476 139.773 375.91 140.148C376.344 140.523 377.088 140.823 378.144 141.05L382.257 141.879C384.466 142.333 386.113 143.062 387.198 144.068C388.283 145.074 388.825 146.396 388.825 148.033C388.825 149.523 388.387 150.83 387.509 151.954C386.641 153.079 385.447 153.956 383.928 154.588C382.419 155.209 380.678 155.52 378.706 155.52C375.697 155.52 373.301 154.893 371.515 153.641C369.74 152.378 368.7 150.662 368.394 148.492L374.593 148.167C374.78 149.084 375.234 149.784 375.954 150.267C376.674 150.741 377.596 150.978 378.721 150.978C379.825 150.978 380.713 150.766 381.384 150.341C382.064 149.907 382.409 149.35 382.419 148.67C382.409 148.098 382.168 147.629 381.694 147.264C381.221 146.889 380.491 146.603 379.505 146.406L375.569 145.622C373.35 145.178 371.698 144.409 370.613 143.314C369.538 142.219 369 140.823 369 139.127C369 137.667 369.395 136.41 370.184 135.354C370.983 134.299 372.102 133.485 373.542 132.913C374.992 132.341 376.689 132.055 378.632 132.055C381.502 132.055 383.761 132.662 385.408 133.875C387.065 135.088 388.031 136.74 388.308 138.831ZM403.151 155.52C400.813 155.52 398.801 155.046 397.114 154.099C395.438 153.143 394.145 151.791 393.238 150.046C392.331 148.29 391.877 146.214 391.877 143.817C391.877 141.479 392.331 139.428 393.238 137.662C394.145 135.897 395.423 134.521 397.07 133.535C398.727 132.548 400.67 132.055 402.899 132.055C404.398 132.055 405.794 132.297 407.086 132.78C408.388 133.253 409.522 133.968 410.489 134.925C411.465 135.882 412.225 137.085 412.767 138.535C413.31 139.975 413.581 141.662 413.581 143.595V145.326H394.392V141.42H407.648C407.648 140.513 407.451 139.709 407.056 139.009C406.662 138.308 406.114 137.761 405.414 137.366C404.724 136.962 403.92 136.76 403.003 136.76C402.046 136.76 401.198 136.982 400.458 137.426C399.728 137.86 399.156 138.446 398.742 139.186C398.327 139.916 398.115 140.73 398.106 141.627V145.341C398.106 146.465 398.313 147.437 398.727 148.255C399.151 149.074 399.748 149.705 400.517 150.149C401.286 150.593 402.199 150.815 403.254 150.815C403.954 150.815 404.596 150.716 405.177 150.519C405.759 150.322 406.257 150.026 406.672 149.631C407.086 149.237 407.402 148.753 407.619 148.181L413.448 148.566C413.152 149.967 412.545 151.19 411.628 152.235C410.721 153.271 409.547 154.08 408.107 154.662C406.677 155.234 405.025 155.52 403.151 155.52ZM432.267 145.4V132.351H438.569V155.076H432.518V150.948H432.282C431.769 152.28 430.916 153.35 429.722 154.159C428.539 154.967 427.094 155.372 425.387 155.372C423.868 155.372 422.532 155.026 421.378 154.336C420.224 153.646 419.321 152.664 418.67 151.392C418.029 150.12 417.704 148.596 417.694 146.82V132.351H423.996V145.696C424.006 147.037 424.366 148.098 425.077 148.877C425.787 149.656 426.738 150.046 427.932 150.046C428.691 150.046 429.402 149.873 430.062 149.528C430.723 149.173 431.256 148.65 431.66 147.959C432.074 147.269 432.277 146.416 432.267 145.4ZM462.519 138.831L456.749 139.186C456.65 138.693 456.438 138.249 456.112 137.855C455.787 137.45 455.358 137.13 454.825 136.893C454.303 136.646 453.676 136.523 452.946 136.523C451.97 136.523 451.146 136.73 450.476 137.144C449.805 137.549 449.47 138.091 449.47 138.772C449.47 139.314 449.687 139.773 450.12 140.148C450.554 140.523 451.299 140.823 452.355 141.05L456.467 141.879C458.677 142.333 460.324 143.062 461.409 144.068C462.494 145.074 463.036 146.396 463.036 148.033C463.036 149.523 462.597 150.83 461.72 151.954C460.852 153.079 459.658 153.956 458.139 154.588C456.63 155.209 454.889 155.52 452.917 155.52C449.908 155.52 447.512 154.893 445.726 153.641C443.951 152.378 442.91 150.662 442.605 148.492L448.804 148.167C448.991 149.084 449.445 149.784 450.165 150.267C450.885 150.741 451.807 150.978 452.932 150.978C454.036 150.978 454.924 150.766 455.595 150.341C456.275 149.907 456.62 149.35 456.63 148.67C456.62 148.098 456.379 147.629 455.905 147.264C455.432 146.889 454.702 146.603 453.716 146.406L449.78 145.622C447.561 145.178 445.909 144.409 444.824 143.314C443.749 142.219 443.211 140.823 443.211 139.127C443.211 137.667 443.606 136.41 444.395 135.354C445.194 134.299 446.313 133.485 447.753 132.913C449.203 132.341 450.9 132.055 452.843 132.055C455.713 132.055 457.972 132.662 459.619 133.875C461.276 135.088 462.242 136.74 462.519 138.831Z" fill="#145ABB"/>
<path d="M167.293 45.4808C165.305 46.218 163.222 47.8528 162.132 49.5196C161.331 50.7697 160.978 51.0582 160.465 50.9299C156.619 49.8401 154.054 50.0004 151.106 51.4749C149.375 52.3403 147.035 54.8405 146.458 56.4111C146.201 57.1163 145.913 57.4689 145.624 57.3407C145.4 57.2445 144.182 57.1804 142.964 57.1804H140.752L140.143 55.9624C139.342 54.3918 136.906 52.148 135.143 51.3787C132.001 50.0004 127.674 50.353 124.693 52.2442L123.443 53.0134L122.065 52.3403C119.949 51.2505 117.77 50.7697 114.789 50.7697C111.679 50.7697 109.628 51.2505 107.128 52.5326C105.012 53.5904 101.967 56.4111 100.813 58.3664C99.7874 60.1294 98.7617 63.0783 98.7617 64.2964C98.7617 65.1618 98.6976 65.1939 97.191 65.1939C96.3256 65.1939 94.6588 65.4824 93.4407 65.867C91.6457 66.4119 90.9726 66.8607 89.4661 68.3672C86.9338 70.8674 86.1325 73.0471 86.3569 76.6371C86.4851 78.977 86.453 79.3296 85.844 79.8425C84.049 81.4452 83.4079 86.125 84.626 88.7534C85.6837 91.0613 88.7609 93.4012 90.7162 93.4012C91.1329 93.4012 91.4214 93.6576 91.5496 94.1064C91.6137 94.5231 94.178 114.3 97.191 138.116C100.204 161.9 102.865 182.126 103.121 183.024C103.666 185.075 105.653 187.383 107.865 188.537L109.5 189.402L124.661 189.498L139.791 189.595V194.851C139.791 200.429 139.983 201.358 141.329 202.833C143.06 204.692 142.259 204.628 167.261 204.628H190.275L193.32 205.942C194.987 206.679 197.744 207.641 199.411 208.058C205.244 209.628 216.303 209.34 219.925 207.577C220.983 207.064 221.047 206.936 221.047 205.461C221.047 204.147 220.919 203.794 220.213 203.282C219.412 202.673 219.348 202.673 216.079 203.346C212.104 204.147 206.526 204.243 202.936 203.538C190.083 201.07 179.697 191.39 176.14 178.6C174.921 174.209 174.729 167.317 175.659 162.701C178.319 149.784 187.839 139.655 200.532 136.129C203.449 135.328 204.251 135.231 209.027 135.231C213.803 135.231 214.604 135.328 217.521 136.129C229.637 139.463 238.708 148.726 242.106 161.131C242.747 163.407 242.843 164.561 242.843 169.529C242.843 175.876 242.427 178.151 240.407 183.024C238.388 187.896 233.58 194.146 229.573 197.095C227.906 198.345 227.394 199.467 227.938 200.781C228.708 202.641 230.599 202.897 232.586 201.39C238.292 197.095 243.485 189.915 246.017 182.895C248.805 175.042 248.902 164.817 246.209 156.804C239.51 136.866 218.258 125.615 198.16 131.417C195.051 132.315 190.243 134.494 188.064 136.033C187.262 136.578 186.589 136.898 186.589 136.77C186.589 136.642 187.807 126.929 189.314 115.198C190.82 103.498 192.038 93.7859 192.038 93.6576C192.038 93.4974 192.359 93.4012 192.775 93.4012C194.026 93.4012 196.686 91.9267 197.744 90.6446C200.597 87.1828 200.34 82.3747 197.103 79.2334L195.564 77.7269L196.205 76.2524C200.18 66.9889 193.737 55.9303 183.608 54.6482L182.037 54.4559L181.46 52.6288C179.922 47.6284 176.268 44.9679 170.947 45.032C169.601 45.032 167.934 45.2564 167.293 45.4808ZM174.601 51.2505C176.011 52.3403 176.652 53.8789 176.652 56.1868C176.652 57.8536 176.781 58.3023 177.422 58.9113C178.095 59.6165 178.447 59.6806 180.851 59.6486C182.967 59.6486 183.897 59.7768 185.147 60.3538C188.897 62.0206 191.012 64.4246 191.91 68.1428C192.423 70.1622 192.423 70.4828 191.91 72.4701C191.621 73.6561 191.012 75.1626 190.596 75.8357L189.794 77.0538H156.298H122.834L122.161 77.759C121.328 78.6565 121.328 80.2592 122.161 81.1567L122.834 81.8619H156.875C179.794 81.8619 191.301 81.9901 192.134 82.2144C193.416 82.567 194.602 84.0095 194.602 85.2275C194.602 86.4455 193.416 87.888 192.134 88.2406C190.468 88.7214 93.3125 88.7214 91.6457 88.2726C88.3442 87.3431 88.3442 83.112 91.6457 82.1824C92.3509 81.9901 96.9026 81.8619 102.608 81.8619C107.993 81.8619 112.545 81.7336 112.737 81.6054C113.25 81.2849 113.827 80.0668 113.827 79.3617C113.827 79.0091 113.538 78.368 113.154 77.8872L112.513 77.0538H101.935H91.3893V75.9319C91.3893 74.4574 92.415 72.4701 93.569 71.6367C94.0818 71.2841 95.1396 70.8033 95.9409 70.611C97.2231 70.2584 97.6077 70.2904 99.3707 70.9315C101.07 71.5726 101.454 71.6367 102.288 71.2841C103.666 70.7071 103.858 70.1622 103.826 67.0851C103.794 64.7772 103.89 64.104 104.692 62.3732C107.576 55.9303 115.782 53.8468 121.584 58.11C123.443 59.4883 124.373 59.3922 126.296 57.6612C128.892 55.3854 131.36 55.0328 133.732 56.6355C135.047 57.501 136.265 59.2639 136.265 60.2255C136.265 60.6102 136.585 61.3154 136.938 61.7962L137.611 62.6616L140.88 62.4373C143.477 62.277 144.502 62.3411 146.105 62.7898C147.227 63.1104 148.477 63.2707 148.926 63.1424C149.823 62.9181 150.529 61.6359 150.849 59.6806C151.202 57.501 153.894 55.2893 156.234 55.2572C157.516 55.2572 159.343 56.0906 160.561 57.2766C162.613 59.2639 165.434 58.142 165.434 55.3213C165.434 54.6802 165.754 53.5583 166.171 52.8852C167.806 49.9683 171.876 49.167 174.601 51.2505ZM115.878 94.4269C115.975 95.0039 116.519 100.197 117.032 105.934L118.026 116.352L116.616 118.435C114.436 121.705 113.667 124.493 113.699 129.141C113.699 132.603 113.827 133.308 114.757 136.033C115.943 139.527 116.744 141.033 119.18 144.303L120.911 146.61L122.642 164.817C123.603 174.818 124.405 183.312 124.405 183.729V184.466L117.545 184.37C111.199 184.274 110.59 184.21 109.756 183.601C109.275 183.248 108.602 182.447 108.314 181.838C107.961 181.068 106.166 167.99 102.32 137.635C99.3066 113.916 96.8385 94.2667 96.8385 93.9461C96.8385 93.4333 97.5116 93.4012 106.294 93.4012H115.718L115.878 94.4269ZM162.453 94.9077C162.356 95.7732 161.972 99.9722 161.555 104.3C161.17 108.627 160.754 112.249 160.658 112.377C160.561 112.505 159.6 112.313 158.542 111.928C156.939 111.383 156.074 111.319 153.349 111.415C150.336 111.544 149.855 111.672 147.612 112.794C146.169 113.499 144.406 114.685 143.445 115.647L141.714 117.313L140.367 115.903C136.329 111.8 130.431 110.294 125.014 111.992C123.892 112.313 122.962 112.569 122.898 112.537C122.866 112.473 122.449 108.563 122.001 103.819C121.552 99.0427 121.135 94.7795 121.039 94.2667L120.911 93.4012H141.778H162.645L162.453 94.9077ZM186.813 94.4269C186.685 95.0039 185.307 105.934 183.672 118.692L180.723 141.899L178.736 144.399C174.184 150.008 171.331 156.419 170.21 163.663C169.825 166.131 169.985 175.267 170.434 177.158L170.626 178.023H165.113H159.568L159.76 176.805C159.856 176.164 160.561 169.048 161.299 161.035L162.677 146.45L164.536 143.918C168.19 139.014 169.921 134.11 169.921 128.724C169.921 124.237 168.992 121.192 166.587 117.762L165.562 116.32L166.62 105.582C167.164 99.6838 167.645 94.5231 167.677 94.1064V93.4012H177.326H186.974L186.813 94.4269ZM133.54 117.41C135.688 118.403 137.771 120.455 138.829 122.634C139.855 124.654 140.4 125.134 141.586 125.134C143.252 125.134 143.605 124.846 144.631 122.795C146.778 118.563 150.432 116.288 154.696 116.544C157.388 116.736 159.151 117.538 161.17 119.557C166.107 124.493 165.978 132.699 160.85 140.168C157.644 144.848 149.407 151.419 142.932 154.496C141.778 155.041 141.746 155.041 140.047 154.207C132.739 150.617 124.853 144.078 121.872 139.142C117.545 131.866 117.705 124.461 122.257 119.749C124.501 117.442 126.488 116.544 129.533 116.512C131.2 116.48 132.001 116.672 133.54 117.41ZM155.785 164.561C155.112 171.516 154.567 177.382 154.535 177.574C154.535 177.863 152.933 177.991 149.182 178.087C144.855 178.183 143.605 178.312 142.772 178.76C141.265 179.562 140.047 181.325 139.855 182.992L139.694 184.434H134.694H129.662L128.283 169.753C127.546 161.708 126.841 154.4 126.713 153.502C126.552 151.931 126.552 151.931 127.225 152.38C133.316 156.675 140.015 160.394 141.714 160.394C143.348 160.394 150.529 156.515 155.016 153.214C156.074 152.444 156.939 151.835 156.971 151.835C157.003 151.867 156.458 157.605 155.785 164.561ZM153.894 191.326V199.531L149.503 199.435L145.079 199.339L144.983 191.646C144.951 187.415 144.983 183.793 145.047 183.569C145.176 183.248 146.362 183.152 149.567 183.152H153.894V191.326ZM167.998 191.326V199.499H163.51H159.023V191.326V183.152H163.51H167.998V191.326ZM176.941 192.447C177.742 193.601 179.441 195.653 180.755 196.999L183.159 199.499H178.159H173.126V192.672L173.159 185.876L174.344 188.12C174.986 189.338 176.172 191.293 176.941 192.447Z" fill="#145ABB"/>
<path d="M210.726 45.5129C209.187 46.2822 207.52 48.3016 207.104 49.8722C206.559 51.7954 206.847 54.488 207.745 56.3791C209.379 59.8409 215.758 64.5849 218.098 64.1041C219.604 63.8156 223.483 61.2513 225.182 59.4242C228.387 56.0265 229.221 51.8275 227.394 48.4618C226.143 46.154 224.284 45 221.784 45C220.758 45 219.38 45.2244 218.675 45.5129C217.521 45.9617 217.329 45.9617 216.431 45.5129C215.181 44.8398 212.072 44.8718 210.726 45.5129ZM215.021 50.9941C215.822 52.3404 216.399 52.6929 217.713 52.6929C218.739 52.6929 219.06 52.5006 219.925 51.4108C220.47 50.7056 221.207 50.1286 221.528 50.1286C223.002 50.1286 223.643 52.4045 222.65 54.2636C222.137 55.2893 219.572 57.6613 218.258 58.3344C217.425 58.7511 217.297 58.7191 215.373 57.2446C212.36 54.9688 211.238 52.5327 212.424 50.8338C213.098 49.8402 214.316 49.9043 215.021 50.9941Z" fill="#145ABB"/>
<path d="M223.739 76.2845C222.938 76.5089 221.592 77.3102 220.758 78.0475C214.348 83.6889 216.623 93.4012 225.823 99.7799C228.355 101.511 231.913 103.338 232.811 103.338C233.74 103.338 238.196 100.838 240.696 98.9465C243.581 96.7348 245.664 94.2667 246.978 91.478C247.78 89.7471 247.972 88.9137 248.068 86.4776C248.196 83.8171 248.132 83.3684 247.331 81.5734C245.792 78.1436 242.363 75.7716 238.997 75.7716C237.555 75.7716 234.99 76.605 233.708 77.5025L232.586 78.2718L231.689 77.5025C230.631 76.605 227.97 75.7716 226.368 75.8037C225.727 75.8037 224.541 76.0281 223.739 76.2845ZM228.836 81.926C229.253 82.3427 229.958 83.2081 230.374 83.8492C231.785 86.0609 233.836 85.9006 235.311 83.4966C236.272 81.958 237.779 80.9002 239.061 80.9002C239.991 80.9002 241.657 82.0862 242.363 83.2081C243.324 84.7788 243.228 87.3751 242.138 89.5548C241.016 91.7985 237.971 94.7795 235.022 96.5425L232.682 97.9208L230.31 96.4463C225.823 93.6576 222.97 90.2599 222.361 87.0225C221.976 84.8749 223.355 82.0221 225.214 81.1887C226.207 80.772 227.938 81.1246 228.836 81.926Z" fill="#145ABB"/>
<path d="M203.898 103.498C199.827 105.357 198.417 110.133 200.628 114.653C201.302 115.999 202.263 117.281 203.321 118.243C205.661 120.326 208.995 122.25 210.309 122.25C212.905 122.25 218.547 117.858 220.149 114.621C220.886 113.114 221.047 112.377 221.047 110.358C221.047 108.21 220.919 107.761 220.085 106.383C218.771 104.235 216.303 102.889 213.995 103.081C213.097 103.146 211.911 103.466 211.302 103.755C210.341 104.235 210.181 104.235 209.475 103.787C208.353 103.049 205.276 102.889 203.898 103.498ZM207.296 108.691C207.552 109.011 208.033 109.588 208.321 110.005C208.642 110.422 209.347 110.806 210.052 110.903C211.27 111.127 211.655 110.871 213.258 108.851C213.963 107.986 214.604 107.954 215.437 108.787C216.239 109.588 216.239 110.71 215.437 112.281C214.796 113.563 212.617 115.679 211.142 116.448C210.341 116.897 210.181 116.833 208.482 115.647C205.244 113.435 203.866 110.422 205.34 108.787C206.046 107.986 206.623 107.986 207.296 108.691Z" fill="#145ABB"/>
<path d="M206.302 139.11C203.481 140.136 201.654 142.892 201.654 146.13C201.654 148.566 202.456 150.297 204.187 151.771C206.494 153.791 209.347 154.175 212.104 152.893C217.841 150.233 217.841 142.027 212.104 139.366C210.245 138.501 208.225 138.405 206.302 139.11ZM210.469 144.527C210.918 144.944 211.27 145.681 211.27 146.13C211.27 147.091 209.956 148.534 209.091 148.534C208.738 148.534 208.097 148.245 207.616 147.861C206.462 146.963 206.462 145.296 207.616 144.399C208.738 143.533 209.507 143.565 210.469 144.527Z" fill="#145ABB"/>
<path d="M223.034 145.841C221.079 146.45 218.931 148.534 218.386 150.329C216.816 155.585 220.149 160.394 225.374 160.394C230.567 160.394 233.868 155.65 232.394 150.329C231.913 148.534 229.669 146.45 227.586 145.841C225.567 145.232 225.054 145.232 223.034 145.841ZM226.304 150.938C227.81 151.707 228.067 153.31 226.913 154.528C226.047 155.457 224.829 155.457 223.868 154.56C222.65 153.406 222.97 151.707 224.573 150.842C225.374 150.393 225.246 150.361 226.304 150.938Z" fill="#145ABB"/>
<path d="M189.249 146.322C186.461 147.7 185.179 150.072 185.371 153.502C185.499 156.227 186.429 157.926 188.576 159.336C189.634 160.041 190.339 160.233 192.23 160.33C194.282 160.458 194.731 160.362 196.173 159.56C200.5 157.22 201.366 151.226 197.936 147.764C195.724 145.585 192.006 144.944 189.249 146.322ZM194.186 151.483C195.115 152.348 195.115 153.566 194.218 154.528C192.84 156.002 190.435 155.041 190.435 153.021C190.435 151.034 192.711 150.072 194.186 151.483Z" fill="#145ABB"/>
<path d="M205.821 157.669C202.295 158.663 199.443 161.099 197.872 164.497C197.103 166.099 197.007 166.74 197.007 169.529C197.007 172.446 197.103 172.927 198 174.818C201.847 182.895 212.713 184.306 218.451 177.478C218.899 176.933 219.701 175.619 220.181 174.593C220.951 172.959 221.047 172.35 221.047 169.529C221.047 166.548 220.983 166.163 219.989 164.176C217.393 158.919 211.335 156.13 205.821 157.669ZM210.982 162.702C212.649 163.182 214.732 165.041 215.47 166.612C216.656 169.208 216.014 172.574 213.963 174.626C211.206 177.382 207.104 177.414 204.251 174.722C201.238 171.869 201.206 167.542 204.155 164.593C206.27 162.509 208.386 161.9 210.982 162.702Z" fill="#145ABB"/>
<path d="M184.185 162.285C180.627 163.182 178.512 166.003 178.544 169.753C178.544 174.049 181.653 177.062 186.012 177.062C192.231 177.03 195.468 169.85 191.589 164.753C190.179 162.862 186.589 161.676 184.185 162.285ZM186.685 167.51C188.288 168.343 188.608 169.721 187.519 171.1C186.204 172.766 183.704 171.773 183.704 169.593C183.704 168.375 184.474 167.51 185.884 167.157C185.948 167.125 186.301 167.285 186.685 167.51Z" fill="#145ABB"/>
<path d="M229.221 162.637C227.426 163.503 226.432 164.368 225.631 165.939C223.771 169.593 225.182 174.337 228.644 176.164C230.375 177.062 233.965 177.158 235.471 176.356C240.92 173.439 240.92 165.522 235.503 162.734C233.9 161.9 230.887 161.868 229.221 162.637ZM233.58 167.862C234.125 168.343 234.445 168.92 234.445 169.529C234.445 170.587 233.099 171.933 232.073 171.933C231.176 171.933 229.862 170.523 229.862 169.529C229.862 168.535 231.176 167.125 232.073 167.125C232.426 167.125 233.099 167.445 233.58 167.862Z" fill="#145ABB"/>
<path d="M190.147 179.113C189.57 179.305 188.512 179.978 187.807 180.555C184.377 183.44 184.441 188.954 187.903 191.903C191.589 195.076 197.455 193.794 199.443 189.434C200.212 187.703 200.212 184.69 199.443 182.959C197.936 179.626 193.641 177.831 190.147 179.113ZM194.09 184.466C195.724 185.748 194.795 188.377 192.679 188.377C190.628 188.377 189.73 186.069 191.237 184.594C192.198 183.633 192.968 183.601 194.09 184.466Z" fill="#145ABB"/>
<path d="M222.81 179.081C221.111 179.626 218.867 182.062 218.354 183.889C217.457 186.998 218.707 190.684 221.143 192.287C224.348 194.403 228.58 193.858 231.048 191.037C232.394 189.531 232.843 187.992 232.682 185.396C232.586 183.569 232.394 182.927 231.625 181.806C229.766 179.177 226.111 178.055 222.81 179.081ZM226.913 184.434C228.804 186.229 226.72 189.306 224.445 188.12C222.906 187.351 222.682 185.812 223.932 184.594C224.861 183.633 225.983 183.569 226.913 184.434Z" fill="#145ABB"/>
<path d="M206.847 185.844C202.904 187.127 200.821 191.197 202.007 195.428C202.424 196.999 204.347 199.115 205.982 199.852C209.315 201.39 213.482 200.076 215.373 196.935C216.239 195.461 216.399 194.884 216.399 193.185C216.399 190.877 215.822 189.178 214.54 187.864C212.649 185.876 209.411 185.011 206.847 185.844ZM210.726 191.422C211.046 191.71 211.27 192.351 211.27 192.992C211.27 195.172 208.77 196.166 207.456 194.499C205.565 192.095 208.418 189.402 210.726 191.422Z" fill="#145ABB"/>
</svg>
