<svg width="768" height="234" viewBox="0 0 768 234" fill="none" xmlns="http://www.w3.org/2000/svg">
<rect x="2.11467" y="2.11467" width="763.771" height="229.292" rx="26.6448" fill="white" stroke="#429DFF" stroke-width="4.22934"/>
<path d="M274.224 86.83C274.106 85.6365 273.598 84.7094 272.7 84.0485C271.803 83.3877 270.585 83.0573 269.046 83.0573C268.001 83.0573 267.118 83.2052 266.398 83.5011C265.678 83.7872 265.125 84.1866 264.741 84.6995C264.366 85.2124 264.179 85.7943 264.179 86.4453C264.159 86.9878 264.272 87.4612 264.519 87.8656C264.775 88.27 265.125 88.6201 265.569 88.916C266.013 89.2021 266.526 89.4536 267.108 89.6706C267.69 89.8777 268.311 90.0552 268.972 90.2032L271.694 90.8542C273.016 91.1501 274.229 91.5446 275.334 92.0378C276.439 92.5309 277.395 93.1375 278.204 93.8575C279.013 94.5775 279.639 95.4258 280.083 96.4022C280.537 97.3787 280.768 98.4982 280.778 99.7607C280.768 101.615 280.295 103.223 279.358 104.584C278.431 105.935 277.09 106.985 275.334 107.735C273.588 108.475 271.482 108.845 269.016 108.845C266.57 108.845 264.44 108.47 262.625 107.72C260.82 106.971 259.41 105.861 258.394 104.391C257.388 102.912 256.86 101.082 256.811 98.9026H263.01C263.079 99.9185 263.37 100.767 263.883 101.447C264.405 102.118 265.101 102.626 265.969 102.971C266.847 103.306 267.838 103.474 268.942 103.474C270.027 103.474 270.969 103.316 271.768 103.001C272.577 102.685 273.203 102.246 273.647 101.684C274.091 101.122 274.313 100.476 274.313 99.7459C274.313 99.0653 274.111 98.4932 273.706 98.0297C273.312 97.5661 272.73 97.1716 271.961 96.8461C271.201 96.5206 270.269 96.2247 269.164 95.9584L265.865 95.1299C263.311 94.5085 261.294 93.537 259.814 92.2153C258.335 90.8936 257.6 89.1133 257.61 86.8744C257.6 85.0398 258.088 83.437 259.074 82.066C260.071 80.695 261.437 79.6249 263.172 78.8556C264.908 78.0862 266.881 77.7016 269.09 77.7016C271.339 77.7016 273.302 78.0862 274.979 78.8556C276.665 79.6249 277.977 80.695 278.914 82.066C279.851 83.437 280.335 85.025 280.364 86.83H274.224ZM291.272 95.2778V108.416H284.969V78.1158H291.094V89.7002H291.36C291.873 88.3588 292.702 87.3083 293.846 86.5489C294.99 85.7795 296.425 85.3949 298.151 85.3949C299.729 85.3949 301.105 85.7401 302.279 86.4305C303.463 87.1111 304.38 88.0925 305.031 89.3747C305.692 90.647 306.017 92.1709 306.007 93.9463V108.416H299.705V95.0707C299.715 93.6701 299.359 92.5802 298.639 91.801C297.929 91.0218 296.933 90.6322 295.651 90.6322C294.793 90.6322 294.033 90.8147 293.372 91.1797C292.721 91.5446 292.209 92.0772 291.834 92.7775C291.469 93.4679 291.281 94.3014 291.272 95.2778ZM321.235 108.859C318.937 108.859 316.949 108.371 315.273 107.395C313.606 106.408 312.318 105.037 311.411 103.282C310.504 101.516 310.05 99.4697 310.05 97.142C310.05 94.7945 310.504 92.743 311.411 90.9873C312.318 89.2218 313.606 87.8508 315.273 86.8744C316.949 85.888 318.937 85.3949 321.235 85.3949C323.533 85.3949 325.515 85.888 327.182 86.8744C328.859 87.8508 330.151 89.2218 331.059 90.9873C331.966 92.743 332.42 94.7945 332.42 97.142C332.42 99.4697 331.966 101.516 331.059 103.282C330.151 105.037 328.859 106.408 327.182 107.395C325.515 108.371 323.533 108.859 321.235 108.859ZM321.264 103.977C322.31 103.977 323.183 103.681 323.883 103.09C324.583 102.488 325.111 101.669 325.466 100.634C325.831 99.5979 326.014 98.4193 326.014 97.0976C326.014 95.7759 325.831 94.5973 325.466 93.5616C325.111 92.526 324.583 91.7073 323.883 91.1057C323.183 90.504 322.31 90.2032 321.264 90.2032C320.209 90.2032 319.321 90.504 318.601 91.1057C317.891 91.7073 317.354 92.526 316.989 93.5616C316.634 94.5973 316.456 95.7759 316.456 97.0976C316.456 98.4193 316.634 99.5979 316.989 100.634C317.354 101.669 317.891 102.488 318.601 103.09C319.321 103.681 320.209 103.977 321.264 103.977ZM340.431 108.416L334.247 85.6908H340.623L344.145 100.959H344.352L348.021 85.6908H354.279L358.007 100.87H358.2L361.662 85.6908H368.024L361.854 108.416H355.182L351.276 94.1238H350.995L347.089 108.416H340.431ZM390.293 92.1709L384.523 92.526C384.425 92.0328 384.213 91.589 383.887 91.1945C383.562 90.7901 383.133 90.4695 382.6 90.2328C382.077 89.9862 381.451 89.8629 380.721 89.8629C379.745 89.8629 378.921 90.07 378.25 90.4843C377.58 90.8887 377.244 91.4312 377.244 92.1117C377.244 92.6542 377.461 93.1128 377.895 93.4877C378.329 93.8625 379.074 94.1633 380.129 94.3901L384.242 95.2186C386.452 95.6724 388.099 96.4022 389.184 97.4083C390.269 98.4143 390.811 99.736 390.811 101.373C390.811 102.863 390.372 104.17 389.495 105.294C388.627 106.418 387.433 107.296 385.914 107.927C384.405 108.549 382.664 108.859 380.692 108.859C377.683 108.859 375.287 108.233 373.501 106.981C371.726 105.718 370.685 104.002 370.38 101.832L376.579 101.506C376.766 102.424 377.22 103.124 377.94 103.607C378.66 104.081 379.582 104.317 380.706 104.317C381.811 104.317 382.699 104.105 383.369 103.681C384.05 103.247 384.395 102.69 384.405 102.009C384.395 101.437 384.154 100.969 383.68 100.604C383.207 100.229 382.477 99.9431 381.491 99.7459L377.555 98.9617C375.336 98.5179 373.684 97.7486 372.599 96.6537C371.524 95.5589 370.986 94.1633 370.986 92.4668C370.986 91.0071 371.381 89.7495 372.17 88.6941C372.969 87.6388 374.088 86.825 375.528 86.253C376.978 85.6809 378.675 85.3949 380.618 85.3949C383.488 85.3949 385.747 86.0015 387.394 87.2146C389.051 88.4278 390.017 90.0799 390.293 92.1709ZM401.63 104.273L401.467 105.901C401.339 107.202 401.092 108.499 400.728 109.792C400.372 111.094 399.998 112.272 399.603 113.328C399.218 114.383 398.908 115.211 398.671 115.813H394.588C394.736 115.231 394.938 114.417 395.194 113.372C395.451 112.336 395.692 111.172 395.919 109.88C396.146 108.588 396.289 107.272 396.348 105.93L396.422 104.273H401.63ZM427.832 85.6908V90.4251H413.806V85.6908H427.832ZM417.017 108.416V84.0485C417.017 82.4014 417.337 81.0353 417.978 79.9504C418.629 78.8654 419.517 78.0517 420.641 77.5092C421.766 76.9667 423.043 76.6955 424.473 76.6955C425.44 76.6955 426.323 76.7695 427.122 76.9174C427.93 77.0654 428.532 77.1985 428.927 77.3169L427.802 82.0512C427.556 81.9723 427.25 81.8984 426.885 81.8293C426.53 81.7603 426.165 81.7258 425.79 81.7258C424.863 81.7258 424.217 81.9427 423.852 82.3767C423.487 82.8008 423.304 83.3976 423.304 84.1669V108.416H417.017ZM441.225 108.859C438.887 108.859 436.875 108.386 435.188 107.439C433.512 106.482 432.22 105.131 431.312 103.385C430.405 101.63 429.951 99.5535 429.951 97.1568C429.951 94.8192 430.405 92.7676 431.312 91.0021C432.22 89.2366 433.497 87.8607 435.144 86.8744C436.801 85.888 438.744 85.3949 440.973 85.3949C442.472 85.3949 443.868 85.6365 445.16 86.1198C446.462 86.5933 447.596 87.3083 448.563 88.2651C449.539 89.2218 450.299 90.4251 450.841 91.875C451.384 93.315 451.655 95.0017 451.655 96.9349V98.6658H432.466V94.76H445.722C445.722 93.8526 445.525 93.0487 445.131 92.3485C444.736 91.6482 444.189 91.1008 443.488 90.7062C442.798 90.3018 441.994 90.0996 441.077 90.0996C440.12 90.0996 439.272 90.3216 438.532 90.7654C437.802 91.1994 437.23 91.7862 436.816 92.526C436.402 93.2559 436.19 94.0696 436.18 94.9671V98.6806C436.18 99.8051 436.387 100.777 436.801 101.595C437.225 102.414 437.822 103.045 438.591 103.489C439.361 103.933 440.273 104.155 441.328 104.155C442.029 104.155 442.67 104.056 443.252 103.859C443.834 103.662 444.332 103.366 444.746 102.971C445.16 102.577 445.476 102.093 445.693 101.521L451.522 101.906C451.226 103.306 450.619 104.53 449.702 105.575C448.795 106.611 447.621 107.419 446.181 108.001C444.751 108.573 443.099 108.859 441.225 108.859ZM474.676 92.1709L468.906 92.526C468.807 92.0328 468.595 91.589 468.27 91.1945C467.944 90.7901 467.515 90.4695 466.983 90.2328C466.46 89.9862 465.833 89.8629 465.104 89.8629C464.127 89.8629 463.304 90.07 462.633 90.4843C461.962 90.8887 461.627 91.4312 461.627 92.1117C461.627 92.6542 461.844 93.1128 462.278 93.4877C462.712 93.8625 463.456 94.1633 464.512 94.3901L468.625 95.2186C470.834 95.6724 472.481 96.4022 473.566 97.4083C474.651 98.4143 475.194 99.736 475.194 101.373C475.194 102.863 474.755 104.17 473.877 105.294C473.009 106.418 471.816 107.296 470.297 107.927C468.788 108.549 467.047 108.859 465.074 108.859C462.066 108.859 459.669 108.233 457.884 106.981C456.108 105.718 455.068 104.002 454.762 101.832L460.961 101.506C461.148 102.424 461.602 103.124 462.322 103.607C463.042 104.081 463.964 104.317 465.089 104.317C466.193 104.317 467.081 104.105 467.752 103.681C468.432 103.247 468.778 102.69 468.788 102.009C468.778 101.437 468.536 100.969 468.063 100.604C467.589 100.229 466.859 99.9431 465.873 99.7459L461.938 98.9617C459.718 98.5179 458.066 97.7486 456.981 96.6537C455.906 95.5589 455.369 94.1633 455.369 92.4668C455.369 91.0071 455.763 89.7495 456.552 88.6941C457.351 87.6388 458.471 86.825 459.911 86.253C461.361 85.6809 463.057 85.3949 465 85.3949C467.87 85.3949 470.129 86.0015 471.776 87.2146C473.433 88.4278 474.4 90.0799 474.676 92.1709ZM491.25 85.6908V90.4251H477.565V85.6908H491.25ZM480.671 80.2463H486.974V101.432C486.974 102.014 487.063 102.468 487.24 102.794C487.418 103.109 487.665 103.331 487.98 103.459C488.306 103.588 488.68 103.652 489.105 103.652C489.4 103.652 489.696 103.627 489.992 103.578C490.288 103.519 490.515 103.474 490.673 103.445L491.664 108.135C491.348 108.233 490.905 108.347 490.333 108.475C489.76 108.613 489.065 108.697 488.246 108.726C486.727 108.786 485.396 108.583 484.252 108.12C483.118 107.656 482.235 106.936 481.604 105.96C480.972 104.983 480.662 103.75 480.671 102.261V80.2463ZM495.355 108.416V85.6908H501.658V108.416H495.355ZM498.521 82.7614C497.584 82.7614 496.781 82.4507 496.11 81.8293C495.449 81.1981 495.119 80.4435 495.119 79.5657C495.119 78.6977 495.449 77.9531 496.11 77.3317C496.781 76.7004 497.584 76.3848 498.521 76.3848C499.458 76.3848 500.257 76.7004 500.918 77.3317C501.589 77.9531 501.924 78.6977 501.924 79.5657C501.924 80.4435 501.589 81.1981 500.918 81.8293C500.257 82.4507 499.458 82.7614 498.521 82.7614ZM527.893 85.6908L519.948 108.416H512.847L504.902 85.6908H511.559L516.279 101.95H516.516L521.22 85.6908H527.893ZM536.988 108.845C535.538 108.845 534.246 108.593 533.112 108.09C531.978 107.577 531.08 106.823 530.419 105.827C529.768 104.821 529.443 103.568 529.443 102.069C529.443 100.806 529.674 99.7459 530.138 98.8878C530.602 98.0297 531.233 97.3392 532.032 96.8165C532.831 96.2937 533.738 95.8992 534.754 95.6329C535.78 95.3666 536.855 95.1792 537.979 95.0707C539.301 94.9326 540.366 94.8044 541.175 94.686C541.984 94.5578 542.571 94.3704 542.936 94.1238C543.3 93.8773 543.483 93.5123 543.483 93.029V92.9402C543.483 92.0032 543.187 91.2783 542.595 90.7654C542.013 90.2525 541.185 89.9961 540.11 89.9961C538.975 89.9961 538.073 90.2476 537.402 90.7506C536.732 91.2438 536.288 91.8652 536.071 92.6148L530.242 92.1413C530.537 90.7605 531.119 89.567 531.987 88.561C532.855 87.5451 533.975 86.7659 535.346 86.2234C536.727 85.671 538.324 85.3949 540.139 85.3949C541.402 85.3949 542.61 85.5428 543.764 85.8387C544.928 86.1346 545.959 86.5933 546.856 87.2146C547.764 87.836 548.479 88.6349 549.001 89.6114C549.524 90.578 549.786 91.7369 549.786 93.0882V108.416H543.808V105.264H543.631C543.266 105.975 542.778 106.601 542.166 107.143C541.555 107.676 540.82 108.095 539.962 108.401C539.104 108.697 538.112 108.845 536.988 108.845ZM538.793 104.495C539.72 104.495 540.539 104.313 541.249 103.948C541.959 103.573 542.516 103.07 542.921 102.439C543.325 101.807 543.527 101.092 543.527 100.293V97.8817C543.33 98.0099 543.059 98.1283 542.714 98.2368C542.378 98.3354 541.999 98.4291 541.574 98.5179C541.15 98.5968 540.726 98.6708 540.302 98.7398C539.878 98.799 539.493 98.8532 539.148 98.9026C538.408 99.0111 537.762 99.1837 537.21 99.4204C536.658 99.6571 536.229 99.9777 535.923 100.382C535.617 100.777 535.464 101.27 535.464 101.862C535.464 102.72 535.775 103.376 536.396 103.829C537.027 104.273 537.826 104.495 538.793 104.495ZM554.675 108.416V85.6908H560.978V108.416H554.675ZM557.841 82.7614C556.904 82.7614 556.101 82.4507 555.43 81.8293C554.769 81.1981 554.439 80.4435 554.439 79.5657C554.439 78.6977 554.769 77.9531 555.43 77.3317C556.101 76.7004 556.904 76.3848 557.841 76.3848C558.778 76.3848 559.577 76.7004 560.238 77.3317C560.909 77.9531 561.244 78.6977 561.244 79.5657C561.244 80.4435 560.909 81.1981 560.238 81.8293C559.577 82.4507 558.778 82.7614 557.841 82.7614ZM584.934 92.1709L579.164 92.526C579.066 92.0328 578.854 91.589 578.528 91.1945C578.203 90.7901 577.774 90.4695 577.241 90.2328C576.718 89.9862 576.092 89.8629 575.362 89.8629C574.386 89.8629 573.562 90.07 572.891 90.4843C572.221 90.8887 571.885 91.4312 571.885 92.1117C571.885 92.6542 572.102 93.1128 572.536 93.4877C572.97 93.8625 573.715 94.1633 574.77 94.3901L578.883 95.2186C581.093 95.6724 582.74 96.4022 583.825 97.4083C584.91 98.4143 585.452 99.736 585.452 101.373C585.452 102.863 585.013 104.17 584.136 105.294C583.268 106.418 582.074 107.296 580.555 107.927C579.046 108.549 577.305 108.859 575.333 108.859C572.324 108.859 569.928 108.233 568.142 106.981C566.367 105.718 565.326 104.002 565.021 101.832L571.22 101.506C571.407 102.424 571.861 103.124 572.581 103.607C573.301 104.081 574.223 104.317 575.347 104.317C576.452 104.317 577.34 104.105 578.01 103.681C578.691 103.247 579.036 102.69 579.046 102.009C579.036 101.437 578.795 100.969 578.321 100.604C577.848 100.229 577.118 99.9431 576.132 99.7459L572.196 98.9617C569.977 98.5179 568.325 97.7486 567.24 96.6537C566.165 95.5589 565.627 94.1633 565.627 92.4668C565.627 91.0071 566.022 89.7495 566.811 88.6941C567.61 87.6388 568.729 86.825 570.169 86.253C571.619 85.6809 573.316 85.3949 575.259 85.3949C578.129 85.3949 580.387 86.0015 582.035 87.2146C583.692 88.4278 584.658 90.0799 584.934 92.1709ZM268.025 149.859C265.688 149.859 263.676 149.386 261.989 148.439C260.312 147.482 259.02 146.131 258.113 144.385C257.205 142.63 256.752 140.554 256.752 138.157C256.752 135.819 257.205 133.768 258.113 132.002C259.02 130.237 260.297 128.861 261.945 127.874C263.602 126.888 265.545 126.395 267.774 126.395C269.273 126.395 270.669 126.637 271.961 127.12C273.263 127.593 274.397 128.308 275.363 129.265C276.34 130.222 277.099 131.425 277.642 132.875C278.184 134.315 278.456 136.002 278.456 137.935V139.666H259.267V135.76H272.523C272.523 134.853 272.326 134.049 271.931 133.348C271.537 132.648 270.989 132.101 270.289 131.706C269.598 131.302 268.795 131.1 267.877 131.1C266.921 131.1 266.072 131.322 265.333 131.765C264.603 132.199 264.031 132.786 263.616 133.526C263.202 134.256 262.99 135.07 262.98 135.967V139.681C262.98 140.805 263.187 141.777 263.602 142.595C264.026 143.414 264.622 144.045 265.392 144.489C266.161 144.933 267.073 145.155 268.129 145.155C268.829 145.155 269.47 145.056 270.052 144.859C270.634 144.662 271.132 144.366 271.546 143.971C271.961 143.577 272.276 143.093 272.493 142.521L278.322 142.906C278.027 144.306 277.42 145.53 276.503 146.575C275.595 147.611 274.422 148.419 272.981 149.001C271.551 149.573 269.899 149.859 268.025 149.859ZM302.567 149.859C300.23 149.859 298.218 149.386 296.531 148.439C294.854 147.482 293.562 146.131 292.655 144.385C291.747 142.63 291.294 140.554 291.294 138.157C291.294 135.819 291.747 133.768 292.655 132.002C293.562 130.237 294.84 128.861 296.487 127.874C298.144 126.888 300.087 126.395 302.316 126.395C303.815 126.395 305.211 126.637 306.503 127.12C307.805 127.593 308.939 128.308 309.906 129.265C310.882 130.222 311.642 131.425 312.184 132.875C312.727 134.315 312.998 136.002 312.998 137.935V139.666H293.809V135.76H307.065C307.065 134.853 306.868 134.049 306.473 133.348C306.079 132.648 305.531 132.101 304.831 131.706C304.141 131.302 303.337 131.1 302.42 131.1C301.463 131.1 300.615 131.322 299.875 131.765C299.145 132.199 298.573 132.786 298.159 133.526C297.744 134.256 297.532 135.07 297.522 135.967V139.681C297.522 140.805 297.73 141.777 298.144 142.595C298.568 143.414 299.165 144.045 299.934 144.489C300.703 144.933 301.616 145.155 302.671 145.155C303.371 145.155 304.012 145.056 304.594 144.859C305.176 144.662 305.674 144.366 306.089 143.971C306.503 143.577 306.819 143.093 307.036 142.521L312.865 142.906C312.569 144.306 311.962 145.53 311.045 146.575C310.137 147.611 308.964 148.419 307.524 149.001C306.094 149.573 304.441 149.859 302.567 149.859ZM337.687 126.691L329.742 149.416H322.64L314.696 126.691H321.353L326.073 142.95H326.309L331.014 126.691H337.687ZM350.536 149.859C348.198 149.859 346.186 149.386 344.5 148.439C342.823 147.482 341.531 146.131 340.623 144.385C339.716 142.63 339.262 140.554 339.262 138.157C339.262 135.819 339.716 133.768 340.623 132.002C341.531 130.237 342.808 128.861 344.455 127.874C346.112 126.888 348.055 126.395 350.285 126.395C351.784 126.395 353.179 126.637 354.471 127.12C355.773 127.593 356.908 128.308 357.874 129.265C358.851 130.222 359.61 131.425 360.153 132.875C360.695 134.315 360.966 136.002 360.966 137.935V139.666H341.777V135.76H355.034C355.034 134.853 354.836 134.049 354.442 133.348C354.047 132.648 353.5 132.101 352.8 131.706C352.109 131.302 351.305 131.1 350.388 131.1C349.431 131.1 348.583 131.322 347.843 131.765C347.114 132.199 346.541 132.786 346.127 133.526C345.713 134.256 345.501 135.07 345.491 135.967V139.681C345.491 140.805 345.698 141.777 346.112 142.595C346.537 143.414 347.133 144.045 347.903 144.489C348.672 144.933 349.584 145.155 350.64 145.155C351.34 145.155 351.981 145.056 352.563 144.859C353.145 144.662 353.643 144.366 354.057 143.971C354.471 143.577 354.787 143.093 355.004 142.521L360.833 142.906C360.537 144.306 359.931 145.53 359.013 146.575C358.106 147.611 356.932 148.419 355.492 149.001C354.062 149.573 352.41 149.859 350.536 149.859ZM371.382 136.278V149.416H365.079V126.691H371.086V130.7H371.352C371.855 129.379 372.699 128.333 373.882 127.564C375.066 126.784 376.501 126.395 378.188 126.395C379.766 126.395 381.142 126.74 382.315 127.431C383.489 128.121 384.401 129.107 385.052 130.389C385.703 131.662 386.029 133.181 386.029 134.946V149.416H379.726V136.071C379.736 134.68 379.381 133.595 378.661 132.816C377.941 132.027 376.95 131.632 375.687 131.632C374.839 131.632 374.089 131.815 373.438 132.18C372.797 132.545 372.294 133.077 371.929 133.778C371.574 134.468 371.392 135.301 371.382 136.278ZM403.084 126.691V131.425H389.398V126.691H403.084ZM392.505 121.246H398.808V142.432C398.808 143.014 398.897 143.468 399.074 143.794C399.252 144.109 399.498 144.331 399.814 144.459C400.139 144.588 400.514 144.652 400.938 144.652C401.234 144.652 401.53 144.627 401.826 144.578C402.122 144.519 402.349 144.474 402.507 144.445L403.498 149.135C403.182 149.233 402.738 149.347 402.166 149.475C401.594 149.613 400.899 149.697 400.08 149.726C398.561 149.786 397.23 149.583 396.086 149.12C394.951 148.656 394.069 147.936 393.437 146.96C392.806 145.983 392.495 144.75 392.505 143.261V121.246ZM417.213 149.859C414.915 149.859 412.927 149.371 411.25 148.395C409.583 147.408 408.296 146.037 407.389 144.282C406.481 142.516 406.028 140.47 406.028 138.142C406.028 135.795 406.481 133.743 407.389 131.987C408.296 130.222 409.583 128.851 411.25 127.874C412.927 126.888 414.915 126.395 417.213 126.395C419.511 126.395 421.493 126.888 423.16 127.874C424.837 128.851 426.129 130.222 427.036 131.987C427.944 133.743 428.398 135.795 428.398 138.142C428.398 140.47 427.944 142.516 427.036 144.282C426.129 146.037 424.837 147.408 423.16 148.395C421.493 149.371 419.511 149.859 417.213 149.859ZM417.242 144.977C418.288 144.977 419.161 144.681 419.861 144.09C420.561 143.488 421.089 142.669 421.444 141.634C421.809 140.598 421.991 139.419 421.991 138.098C421.991 136.776 421.809 135.597 421.444 134.562C421.089 133.526 420.561 132.707 419.861 132.106C419.161 131.504 418.288 131.203 417.242 131.203C416.187 131.203 415.299 131.504 414.579 132.106C413.869 132.707 413.332 133.526 412.967 134.562C412.611 135.597 412.434 136.776 412.434 138.098C412.434 139.419 412.611 140.598 412.967 141.634C413.332 142.669 413.869 143.488 414.579 144.09C415.299 144.681 416.187 144.977 417.242 144.977ZM451.404 133.171L445.634 133.526C445.535 133.033 445.323 132.589 444.997 132.194C444.672 131.79 444.243 131.47 443.71 131.233C443.188 130.986 442.561 130.863 441.831 130.863C440.855 130.863 440.031 131.07 439.361 131.484C438.69 131.889 438.355 132.431 438.355 133.112C438.355 133.654 438.572 134.113 439.006 134.488C439.439 134.862 440.184 135.163 441.24 135.39L445.352 136.219C447.562 136.672 449.209 137.402 450.294 138.408C451.379 139.414 451.921 140.736 451.921 142.373C451.921 143.863 451.482 145.17 450.605 146.294C449.737 147.418 448.543 148.296 447.024 148.927C445.515 149.549 443.774 149.859 441.802 149.859C438.793 149.859 436.397 149.233 434.611 147.981C432.836 146.718 431.795 145.002 431.49 142.832L437.689 142.506C437.876 143.424 438.33 144.124 439.05 144.607C439.77 145.081 440.692 145.317 441.817 145.317C442.921 145.317 443.809 145.105 444.48 144.681C445.16 144.247 445.505 143.69 445.515 143.009C445.505 142.437 445.264 141.969 444.79 141.604C444.317 141.229 443.587 140.943 442.601 140.746L438.665 139.962C436.446 139.518 434.794 138.749 433.709 137.654C432.634 136.559 432.096 135.163 432.096 133.467C432.096 132.007 432.491 130.749 433.28 129.694C434.079 128.639 435.198 127.825 436.638 127.253C438.088 126.681 439.785 126.395 441.728 126.395C444.598 126.395 446.857 127.001 448.504 128.215C450.161 129.428 451.127 131.08 451.404 133.171ZM475.8 149.859C473.473 149.859 471.47 149.366 469.794 148.38C468.127 147.384 466.844 146.003 465.947 144.237C465.059 142.472 464.615 140.44 464.615 138.142C464.615 135.814 465.064 133.773 465.962 132.017C466.869 130.251 468.156 128.875 469.823 127.889C471.49 126.893 473.473 126.395 475.771 126.395C477.753 126.395 479.489 126.755 480.978 127.475C482.468 128.195 483.646 129.206 484.514 130.508C485.382 131.81 485.861 133.339 485.95 135.094H480.002C479.834 133.96 479.39 133.048 478.67 132.357C477.96 131.657 477.028 131.307 475.874 131.307C474.898 131.307 474.045 131.573 473.315 132.106C472.595 132.628 472.033 133.393 471.628 134.399C471.224 135.405 471.022 136.623 471.022 138.053C471.022 139.503 471.219 140.736 471.613 141.752C472.018 142.768 472.585 143.542 473.315 144.075C474.045 144.607 474.898 144.874 475.874 144.874C476.594 144.874 477.24 144.726 477.812 144.43C478.394 144.134 478.873 143.705 479.247 143.143C479.632 142.571 479.884 141.885 480.002 141.086H485.95C485.851 142.822 485.377 144.351 484.529 145.673C483.691 146.984 482.532 148.01 481.052 148.75C479.573 149.49 477.822 149.859 475.8 149.859ZM504.558 139.74V126.691H510.86V149.416H504.809V145.288H504.573C504.06 146.619 503.206 147.69 502.013 148.498C500.829 149.307 499.384 149.712 497.678 149.712C496.159 149.712 494.823 149.366 493.669 148.676C492.515 147.985 491.612 147.004 490.961 145.732C490.32 144.459 489.995 142.936 489.985 141.16V126.691H496.287V140.036C496.297 141.377 496.657 142.437 497.367 143.217C498.078 143.996 499.029 144.385 500.223 144.385C500.982 144.385 501.692 144.213 502.353 143.868C503.014 143.513 503.547 142.99 503.951 142.299C504.365 141.609 504.568 140.756 504.558 139.74ZM522.204 119.116V149.416H515.902V119.116H522.204ZM539.34 126.691V131.425H525.655V126.691H539.34ZM528.762 121.246H535.065V142.432C535.065 143.014 535.153 143.468 535.331 143.794C535.509 144.109 535.755 144.331 536.071 144.459C536.396 144.588 536.771 144.652 537.195 144.652C537.491 144.652 537.787 144.627 538.083 144.578C538.379 144.519 538.606 144.474 538.763 144.445L539.755 149.135C539.439 149.233 538.995 149.347 538.423 149.475C537.851 149.613 537.156 149.697 536.337 149.726C534.818 149.786 533.487 149.583 532.342 149.12C531.208 148.656 530.325 147.936 529.694 146.96C529.063 145.983 528.752 144.75 528.762 143.261V121.246ZM558.019 139.74V126.691H564.322V149.416H558.27V145.288H558.034C557.521 146.619 556.668 147.69 555.474 148.498C554.291 149.307 552.846 149.712 551.139 149.712C549.62 149.712 548.284 149.366 547.13 148.676C545.976 147.985 545.073 147.004 544.422 145.732C543.781 144.459 543.456 142.936 543.446 141.16V126.691H549.749V140.036C549.758 141.377 550.118 142.437 550.829 143.217C551.539 143.996 552.491 144.385 553.684 144.385C554.444 144.385 555.154 144.213 555.814 143.868C556.475 143.513 557.008 142.99 557.412 142.299C557.827 141.609 558.029 140.756 558.019 139.74ZM569.363 149.416V126.691H575.473V130.656H575.71C576.124 129.245 576.819 128.18 577.796 127.46C578.772 126.73 579.897 126.365 581.169 126.365C581.485 126.365 581.825 126.385 582.19 126.424C582.555 126.464 582.875 126.518 583.152 126.587V132.18C582.856 132.091 582.446 132.012 581.924 131.943C581.401 131.874 580.923 131.839 580.489 131.839C579.561 131.839 578.733 132.042 578.003 132.446C577.283 132.84 576.711 133.393 576.287 134.103C575.873 134.813 575.665 135.632 575.665 136.559V149.416H569.363ZM592.239 149.845C590.789 149.845 589.497 149.593 588.363 149.09C587.229 148.577 586.331 147.823 585.67 146.827C585.019 145.821 584.694 144.568 584.694 143.069C584.694 141.806 584.926 140.746 585.389 139.888C585.853 139.03 586.484 138.339 587.283 137.816C588.082 137.294 588.989 136.899 590.005 136.633C591.031 136.367 592.106 136.179 593.231 136.071C594.552 135.933 595.618 135.804 596.426 135.686C597.235 135.558 597.822 135.37 598.187 135.124C598.552 134.877 598.734 134.512 598.734 134.029V133.94C598.734 133.003 598.438 132.278 597.847 131.765C597.265 131.253 596.436 130.996 595.361 130.996C594.227 130.996 593.324 131.248 592.654 131.751C591.983 132.244 591.539 132.865 591.322 133.615L585.493 133.141C585.789 131.76 586.371 130.567 587.239 129.561C588.107 128.545 589.226 127.766 590.597 127.223C591.978 126.671 593.576 126.395 595.391 126.395C596.653 126.395 597.861 126.543 599.015 126.839C600.179 127.135 601.21 127.593 602.108 128.215C603.015 128.836 603.73 129.635 604.253 130.611C604.776 131.578 605.037 132.737 605.037 134.088V149.416H599.06V146.264H598.882C598.517 146.975 598.029 147.601 597.418 148.143C596.806 148.676 596.071 149.095 595.213 149.401C594.355 149.697 593.364 149.845 592.239 149.845ZM594.044 145.495C594.971 145.495 595.79 145.313 596.5 144.948C597.21 144.573 597.768 144.07 598.172 143.439C598.576 142.807 598.779 142.092 598.779 141.293V138.882C598.581 139.01 598.31 139.128 597.965 139.237C597.63 139.335 597.25 139.429 596.826 139.518C596.402 139.597 595.978 139.671 595.553 139.74C595.129 139.799 594.745 139.853 594.399 139.903C593.66 140.011 593.014 140.184 592.461 140.42C591.909 140.657 591.48 140.978 591.174 141.382C590.868 141.777 590.716 142.27 590.716 142.862C590.716 143.72 591.026 144.376 591.648 144.829C592.279 145.273 593.078 145.495 594.044 145.495ZM609.927 149.416V126.691H616.229V149.416H609.927ZM613.093 123.761C612.156 123.761 611.352 123.451 610.681 122.829C610.02 122.198 609.69 121.444 609.69 120.566C609.69 119.698 610.02 118.953 610.681 118.332C611.352 117.7 612.156 117.385 613.093 117.385C614.03 117.385 614.829 117.7 615.489 118.332C616.16 118.953 616.496 119.698 616.496 120.566C616.496 121.444 616.16 122.198 615.489 122.829C614.829 123.451 614.03 123.761 613.093 123.761ZM640.186 133.171L634.416 133.526C634.317 133.033 634.105 132.589 633.78 132.194C633.454 131.79 633.025 131.47 632.492 131.233C631.97 130.986 631.343 130.863 630.614 130.863C629.637 130.863 628.813 131.07 628.143 131.484C627.472 131.889 627.137 132.431 627.137 133.112C627.137 133.654 627.354 134.113 627.788 134.488C628.222 134.862 628.966 135.163 630.022 135.39L634.135 136.219C636.344 136.672 637.991 137.402 639.076 138.408C640.161 139.414 640.704 140.736 640.704 142.373C640.704 143.863 640.265 145.17 639.387 146.294C638.519 147.418 637.325 148.296 635.807 148.927C634.297 149.549 632.557 149.859 630.584 149.859C627.576 149.859 625.179 149.233 623.394 147.981C621.618 146.718 620.578 145.002 620.272 142.832L626.471 142.506C626.658 143.424 627.112 144.124 627.832 144.607C628.552 145.081 629.474 145.317 630.599 145.317C631.703 145.317 632.591 145.105 633.262 144.681C633.942 144.247 634.288 143.69 634.297 143.009C634.288 142.437 634.046 141.969 633.572 141.604C633.099 141.229 632.369 140.943 631.383 140.746L627.447 139.962C625.228 139.518 623.576 138.749 622.491 137.654C621.416 136.559 620.879 135.163 620.879 133.467C620.879 132.007 621.273 130.749 622.062 129.694C622.861 128.639 623.98 127.825 625.421 127.253C626.87 126.681 628.567 126.395 630.51 126.395C633.38 126.395 635.639 127.001 637.286 128.215C638.943 129.428 639.91 131.08 640.186 133.171Z" fill="#145ABB"/>
<path d="M107.77 56.7014C93.8198 60.1127 82.0605 63.0525 81.6167 63.2189C80.6183 63.635 79.5644 64.9107 79.2315 66.1311C79.0097 66.9631 79.5921 71.1787 82.5597 89.8994C84.5288 102.408 86.1374 112.836 86.0819 113.058C86.0265 113.335 85.3331 113.668 84.196 113.973C80.119 115.027 76.9019 116.857 74.073 119.714C68.8866 124.928 67.5276 132.194 70.6894 137.492C71.8265 139.405 73.3241 140.681 75.737 141.846C84.2792 145.951 96.2882 140.737 100.31 131.14C101.974 127.258 101.946 126.897 98.0632 102.713C94.5132 80.3588 94.2636 78.7225 94.5687 78.7225C94.6796 78.7225 102.223 76.9197 111.292 74.6732C120.389 72.4545 127.933 70.7627 128.044 70.8736C128.349 71.1787 132.232 95.7514 132.121 96.6666C132.038 97.3322 131.844 97.4432 130.096 97.8869C126.075 98.8576 122.913 100.744 119.946 103.878C117.089 106.901 115.536 110.09 115.12 113.834C114.732 117.246 116.118 121.212 118.448 123.347C119.918 124.706 121.027 124.845 122.053 123.791C123.107 122.765 122.969 121.711 121.61 120.13C120.972 119.409 120.278 118.438 120.084 117.967C118.642 114.444 119.89 110.367 123.551 106.734C126.075 104.21 128.654 102.768 131.982 102.047C133.23 101.77 134.562 101.409 134.867 101.215C135.754 100.744 136.642 99.3568 136.808 98.192C136.947 97.0826 132.62 69.2928 132.176 68.4607C132.038 68.2111 131.483 67.601 130.928 67.1018C130.069 66.3807 129.736 66.242 128.46 66.242C127.462 66.242 121.305 67.6287 110.488 70.2635C101.447 72.4822 93.5702 74.4236 93.0155 74.59C92.4608 74.7287 91.6011 75.2279 91.1573 75.6994C89.4655 77.3912 89.3823 76.4205 93.3761 101.52C97.2866 126.121 97.2866 126.176 96.1218 129.282C93.903 135.245 86.3315 139.71 80.3132 138.656C75.4597 137.769 72.6585 133.997 73.6015 129.56C74.1562 126.953 75.2378 125.094 77.512 122.82C80.0358 120.296 82.1437 119.131 85.6937 118.272C89.2714 117.384 90.1312 116.719 90.6858 114.444C90.769 114.001 89.3823 104.46 87.2468 90.9533C85.2776 78.4174 83.6413 67.9615 83.6413 67.6842C83.6413 67.2959 84.3069 67.0463 87.1913 66.3252C124.494 57.2283 134.451 54.8154 134.534 54.9264C134.617 54.9818 136.531 66.8799 138.833 81.385C143.492 110.534 143.492 110.672 142.105 113.668C140.136 117.939 135.699 121.35 130.817 122.376C128.377 122.876 127.628 123.458 127.628 124.928C127.628 126.204 128.488 126.98 129.93 126.98C131.622 126.98 134.423 126.176 136.753 125.039C143.409 121.794 147.597 115.637 147.486 109.23C147.458 105.542 139.055 53.5119 138.333 52.3193C137.501 50.9881 136.392 50.4334 134.617 50.4611C133.674 50.4611 123.995 52.7076 107.77 56.7014Z" fill="#145ABB"/>
<path d="M192.693 51.0436C192.388 51.4042 191.861 52.3749 191.528 53.2069C189.559 58.2546 186.841 61.4995 183.069 63.4132C180.767 64.5503 180.157 65.2436 180.157 66.6581C180.157 68.0725 180.767 68.7659 183.069 69.903C186.841 71.8167 189.559 75.0616 191.528 80.1093C192.388 82.328 192.998 82.8827 194.607 82.8827C195.439 82.8827 196.104 82.7163 196.465 82.3835C197.13 81.8288 198.739 77.946 198.739 76.8921C198.739 75.3112 196.576 74.3128 195.217 75.2557C194.662 75.644 194.579 75.5886 193.497 73.7303C192.11 71.4284 189.698 68.7382 187.895 67.5178L186.564 66.6303L187.784 65.8815C189.476 64.7999 192 62.0264 193.442 59.6413L194.662 57.6167L195.439 59.0311C196.659 61.2499 199.072 64.0788 200.958 65.521C201.901 66.2143 202.566 66.7968 202.4 66.7968C202.261 66.7968 201.734 67.1573 201.263 67.6011C200.292 68.5163 200.098 69.8475 200.847 70.9014C201.402 71.678 203.177 71.7335 204.23 70.9846C204.646 70.7073 205.756 70.0694 206.699 69.5979C208.612 68.655 209.001 68.1557 209.001 66.6581C209.001 65.1327 208.64 64.6889 206.2 63.4409C202.372 61.444 199.765 58.3655 197.907 53.6229C196.853 50.9327 196.326 50.4335 194.607 50.4335C193.608 50.4335 193.164 50.5721 192.693 51.0436Z" fill="#145ABB"/>
<path d="M162.795 76.7534C162.241 77.0862 161.769 77.6964 161.575 78.362C160.41 81.9397 157.803 85.2124 154.835 86.7932C152.728 87.9026 152.45 88.2632 152.423 89.6776C152.423 91.1753 152.95 91.8686 154.78 92.7007C157.47 93.921 159.717 96.6112 161.27 100.439C162.046 102.352 162.934 103.129 164.321 103.129C165.791 103.129 166.373 102.574 167.233 100.355C168.37 97.4987 169.978 95.2245 171.92 93.81C172.807 93.1444 173.723 92.5897 173.917 92.5897C174.582 92.5897 175.941 91.203 176.135 90.3987C176.441 88.9565 175.692 87.7917 173.944 86.9596C171.032 85.5729 168.398 82.5221 167.26 79.194C166.955 78.3065 166.456 77.3358 166.123 77.0307C165.264 76.2264 163.821 76.0878 162.795 76.7534ZM167.898 88.18L169.562 89.7608L168.093 91.0366C167.26 91.73 166.068 93.1167 165.43 94.1151L164.237 95.8901L163.073 94.1428C162.435 93.1721 161.214 91.7854 160.382 91.0366L158.857 89.6776L159.939 88.8733C161.103 87.9858 163.294 85.3511 163.821 84.1862L164.154 83.4651L165.18 85.046C165.735 85.9057 166.955 87.3202 167.898 88.18Z" fill="#145ABB"/>
<path d="M151.868 116.108C149.982 117.135 150.01 117.024 145.933 141.263C143.853 153.605 142.05 163.895 141.939 164.117C141.773 164.394 140.802 164.505 137.862 164.56C133.646 164.616 131.76 165.06 128.46 166.668C122.164 169.802 118.392 175.987 119.363 181.645C120.223 186.692 124.106 190.547 129.819 192.017C131.982 192.572 136.642 192.544 139.193 191.99C143.686 190.991 148.567 187.802 150.758 184.39C152.45 181.756 152.866 179.87 156.749 157.017C158.829 144.841 160.604 134.774 160.715 134.663C160.937 134.441 194.163 137.159 194.884 137.464C195.272 137.63 195.05 139.239 193.081 150.804L190.835 163.95L186.813 164.006C183.014 164.033 182.625 164.089 180.101 164.949C173.667 167.14 169.119 171.965 168.176 177.485C167.149 183.836 171.642 189.771 178.798 191.463C181.377 192.045 185.676 191.99 188.366 191.324C192.083 190.381 194.939 188.8 197.519 186.221C200.791 182.948 201.18 181.978 202.733 173.435C205.978 155.269 210.998 124.429 210.831 123.513C210.582 122.21 209.195 120.685 207.947 120.324C206.948 120.047 156.167 115.609 153.948 115.609C153.338 115.609 152.395 115.831 151.868 116.108ZM172.669 121.572C202.594 124.151 206.31 124.484 206.394 124.54C206.449 124.623 201.762 152.496 198.573 171.078C197.103 179.731 196.659 180.951 194.024 183.364C191.167 186.027 187.423 187.441 183.346 187.441C179.38 187.413 176.524 186.332 174.444 184.03C171.504 180.73 171.948 176.431 175.636 172.797C177.55 170.884 179.907 169.608 182.847 168.831C184.705 168.332 185.51 168.277 188.616 168.443C192.083 168.61 192.249 168.582 193.164 167.972C193.691 167.611 194.357 166.946 194.607 166.502C194.912 165.975 195.938 160.594 197.491 151.414C199.626 138.906 199.876 137.048 199.599 136.105C199.127 134.524 197.907 133.442 196.16 133.11C193.553 132.61 160.549 129.948 159.467 130.17C158.136 130.392 156.749 131.778 156.333 133.221C156.167 133.831 154.336 144.37 152.256 156.656C148.013 181.978 148.235 181.146 145.212 183.919C142.078 186.831 138.333 188.135 133.73 187.94C130.013 187.774 128.183 187.081 126.047 184.973C123.385 182.366 122.969 179.62 124.716 176.098C126.241 173.047 129.764 170.496 134.035 169.386C135.893 168.887 136.697 168.859 139.803 168.998C143.27 169.164 143.437 169.164 144.38 168.526C144.907 168.166 145.572 167.445 145.822 166.918C146.071 166.363 147.874 156.545 150.037 143.621C152.117 131.335 153.865 121.017 153.948 120.657C154.031 120.324 154.253 120.047 154.419 120.047C154.614 120.047 162.795 120.74 172.669 121.572Z" fill="#145ABB"/>
<path d="M103.083 143.566C102.002 144.092 102.002 144.12 100.837 147.005C98.8398 151.914 95.9832 155.269 91.9339 157.35C90.575 158.043 89.3546 158.847 89.1882 159.152C88.7722 159.929 88.8554 161.732 89.3546 162.425C89.5765 162.758 90.6859 163.479 91.823 164.033C95.7336 165.947 99.0617 169.83 100.864 174.573C102.029 177.596 102.889 178.4 104.664 178.206C106.245 178.039 106.716 177.512 107.743 174.822C109.684 169.719 112.652 166.225 116.756 164.117C119.419 162.758 120.168 161.787 119.862 160.151C119.641 158.986 118.919 158.376 116.507 157.211C113.511 155.769 110.738 152.829 108.991 149.279C108.242 147.753 107.41 145.951 107.132 145.23C106.772 144.287 106.384 143.815 105.69 143.51C104.525 142.955 104.248 142.955 103.083 143.566ZM106.411 153.855C107.992 156.268 110.017 158.431 112.125 159.901L113.262 160.705L111.459 162.037C109.296 163.645 106.994 166.363 105.496 169.081L104.359 171.133L103.471 169.469C103 168.554 102.14 167.195 101.586 166.419C100.337 164.755 97.2589 161.815 96.0941 161.205L95.2343 160.761L96.1218 160.206C98.6734 158.681 101.641 155.408 103.388 152.219C104.165 150.804 104.359 150.61 104.581 150.998C104.747 151.248 105.552 152.551 106.411 153.855Z" fill="#145ABB"/>
</svg>
