<svg width="55" height="58" viewBox="0 0 55 58" fill="none" xmlns="http://www.w3.org/2000/svg">
<path d="M46.0188 1.71818C45.4426 2.16138 40.6561 9.47408 35.4265 17.8948C30.1968 26.3154 25.8091 33.2293 25.6762 33.2293C25.5432 33.2293 24.0807 31.1906 22.3522 28.7087C20.6681 26.2711 18.6737 23.8779 17.9203 23.4347C15.3498 21.8392 12.1588 22.7256 10.8735 25.4291C9.54393 28.2212 9.63257 28.3985 17.0782 39.0351C22.9727 47.4558 23.8148 48.2092 26.8728 47.7217C27.7592 47.5444 28.9558 46.9683 29.4877 46.4365C29.9752 45.8603 35.6481 36.9964 42.0744 26.67C55.3259 5.30805 55.3702 5.21941 52.5781 2.42729C51.2485 1.09771 50.7167 0.876114 49.0325 0.876114C47.7916 0.876114 46.6836 1.18635 46.0188 1.71818Z" fill="url(#paint0_linear_71_270)"/>
<path d="M21.067 4.90801C17.9203 5.52848 12.6463 8.09901 9.98713 10.2707C1.6994 17.0072 -1.75751 27.5995 0.857332 37.8816C3.20626 47.0114 10.6962 54.5457 19.7374 56.8947C23.1943 57.7811 30.0195 57.8254 33.3435 56.939C42.6062 54.5457 50.0519 47.0114 52.4894 37.6157C53.5088 33.7156 53.1985 26.137 51.8246 22.2369C51.2928 20.73 50.7167 19.4891 50.5837 19.4891C50.4064 19.4891 49.4314 20.863 48.4564 22.5471L46.595 25.5608L46.8166 29.5053C47.2154 35.9316 45.3097 41.0726 40.9664 45.4159C34.3185 52.0639 24.3023 53.3491 16.1918 48.5626C13.8429 47.1887 10.4303 43.6875 8.96778 41.2056C4.40288 33.2281 5.77678 23.3449 12.3361 16.7856C17.5214 11.6446 24.6568 9.56155 31.2161 11.3343C32.6787 11.7332 34.1412 12.0878 34.4958 12.1321C35.0276 12.1764 38.0856 7.83309 38.0856 7.03534C38.0856 6.90238 36.6231 6.28191 34.8946 5.75008C31.2161 4.59777 24.6125 4.1989 21.067 4.90801Z" fill="url(#paint1_linear_71_270)"/>
<defs>
<linearGradient id="paint0_linear_71_270" x1="32.1338" y1="0.876114" x2="32.1338" y2="47.8359" gradientUnits="userSpaceOnUse">
<stop stop-color="#F5BA2A"/>
<stop offset="1" stop-color="#D4701E"/>
</linearGradient>
<linearGradient id="paint1_linear_71_270" x1="26.5457" y1="4.55502" x2="26.5457" y2="57.582" gradientUnits="userSpaceOnUse">
<stop stop-color="#F5BA2A"/>
<stop offset="1" stop-color="#D4701E"/>
</linearGradient>
</defs>
</svg>
