<svg width="92" height="83" viewBox="0 0 92 83" fill="none" xmlns="http://www.w3.org/2000/svg">
<path d="M10.847 1.25811C9.33852 2.4793 9.26668 3.05398 9.48219 13.3263L9.69769 24.1016H11.4936H13.2894L13.5049 14.1884L13.7204 4.34701H17.3122C21.1194 4.34701 22.4843 3.12582 20.8321 1.11444C19.5391 -0.465922 12.7866 -0.322253 10.847 1.25811Z" fill="url(#paint0_linear_401_988)"/>
<path d="M37.4977 0.68119C36.9231 0.968529 36.6357 1.90238 36.7794 2.62073C36.9949 3.91375 38.2161 3.98559 59.4792 4.34476L81.8916 4.70394L72.5531 14.0425C66.088 20.5076 63.2146 23.8838 63.2146 24.9613C63.2146 26.1825 63.6456 26.6135 64.7949 26.6135C65.9443 26.6135 69.8234 23.2373 77.366 15.6947L88.3567 4.70394V10.8099V16.9158L73.0559 32.2166L57.827 47.4456H47.9138H38.0724V45.6497C38.0724 44.213 37.7132 43.8539 36.2765 43.8539H34.4807V57.1433V70.4327H19.0362H3.59174V52.5459C3.59174 42.7045 3.80724 34.1562 4.02275 33.5097C4.38192 32.504 6.39329 32.3603 18.9644 32.3603H33.5468L34.4088 34.228C35.5582 36.8141 37.6414 36.2394 37.9287 33.2942C38.0724 31.7138 37.7132 30.5644 36.7076 29.5588C35.2709 28.1221 34.4088 28.0502 19.0362 28.0502C3.80724 28.0502 2.80156 28.1221 1.4367 29.4869C0.0718348 30.8518 0 31.8575 0 55.5629C0 79.7713 0 80.2741 1.50853 81.639C2.87339 82.8601 4.31009 83.0038 19.0362 83.0038C39.0063 83.0038 38.0724 83.5067 38.0724 73.2343V66.1226L52.6549 65.979L67.1655 65.7635L67.381 62.0999C67.6683 57.0715 66.1598 55.2756 61.2032 54.7728C58.1861 54.4854 57.4678 54.1981 57.4678 53.1206C57.4678 51.8275 58.3298 51.7557 73.8461 51.7557C85.627 51.7557 90.44 51.5402 91.0865 50.8937C92.164 49.8162 92.3077 3.12357 91.2301 1.47137C90.6555 0.53752 86.7764 0.393851 64.5076 0.178347C50.1407 0.106512 38.0006 0.322016 37.4977 0.68119ZM88.3567 35.5929V47.4456H76.3603H64.2921L76.1448 35.5929C82.6818 29.0559 88.0694 23.7401 88.1412 23.7401C88.2849 23.7401 88.3567 29.0559 88.3567 35.5929ZM44.5375 53.0487C44.5375 53.6952 43.8192 54.6291 42.9572 54.9883C42.0233 55.4193 41.305 56.3531 41.305 57.1433C41.305 58.5082 41.8797 58.58 52.0802 58.9392C61.5624 59.2265 62.8554 59.442 63.0709 60.5195C63.2864 61.7407 62.3526 61.8126 50.7153 61.8126H38.0724V56.7841V51.7557H41.305C43.891 51.7557 44.5375 51.9712 44.5375 53.0487ZM53.1577 53.1924C53.1577 54.3417 52.6549 54.6291 51.0027 54.6291C49.3505 54.6291 48.8476 54.3417 48.8476 53.1924C48.8476 52.043 49.3505 51.7557 51.0027 51.7557C52.6549 51.7557 53.1577 52.043 53.1577 53.1924ZM17.4558 76.2513C17.1685 77.1134 17.4558 78.0472 18.0305 78.4064C18.677 78.7656 16.3783 79.0529 12.0682 79.0529C5.89045 79.0529 5.02843 78.9092 4.31009 77.688C2.87339 74.9583 3.37623 74.7428 10.7034 74.7428C17.5995 74.7428 17.815 74.8147 17.4558 76.2513ZM34.4807 75.533C34.4807 75.964 34.1215 76.8979 33.7623 77.688C33.1158 78.9092 32.182 79.0529 26.4352 79.0529C20.7602 79.0529 20.0419 78.9092 20.8321 77.9754C21.3349 77.4007 21.5504 76.395 21.2631 75.8203C20.9757 74.8865 21.9096 74.7428 27.6564 74.7428C32.0383 74.7428 34.4807 75.0302 34.4807 75.533Z" fill="url(#paint1_linear_401_988)"/>
<path d="M23.8491 36.885C21.7659 39.1119 21.8378 41.2669 24.1365 43.0628C26.5789 44.9305 28.0156 45.0023 28.5184 43.1346C28.8776 41.8416 29.5241 41.6979 36.2765 41.6979C43.029 41.6979 43.6755 41.8416 44.0347 43.1346C44.5375 45.0023 45.9742 44.9305 48.4166 43.0628C50.7153 41.2669 50.7872 38.8245 48.6321 36.8132C46.6926 35.0173 43.8192 34.73 43.8192 36.3103C43.8192 37.1723 42.5262 37.3878 36.2765 37.3878C30.0269 37.3878 28.7339 37.1723 28.7339 36.3103C28.7339 34.6581 25.5732 35.0173 23.8491 36.885Z" fill="url(#paint2_linear_401_988)"/>
<path d="M12.7147 48.5251C9.33852 49.6744 6.46513 52.2605 6.46513 54.0564C6.46513 56.2832 8.4765 56.3551 11.6372 54.2C14.1514 52.476 15.3008 52.1168 19.0362 52.1168C22.7716 52.1168 23.921 52.476 26.4352 54.2C28.0874 55.3494 29.8833 56.0677 30.5298 55.7804C33.6187 54.631 29.7396 49.6026 24.5675 48.1659C20.9757 47.1602 16.0191 47.3039 12.7147 48.5251Z" fill="url(#paint3_linear_401_988)"/>
<path d="M15.4445 55.5627C12.7147 56.8557 11.2062 58.5797 11.7809 60.0164C12.2837 61.3813 13.8641 61.3813 16.6657 59.9446C18.677 58.8671 19.108 58.8671 21.6223 60.0164C26.2915 62.1715 28.3747 59.6572 24.4238 56.6402C21.9814 54.8443 18.1024 54.4133 15.4445 55.5627Z" fill="url(#paint4_linear_401_988)"/>
<path d="M17.2403 64.2523C17.2403 65.1862 17.6713 66.12 18.1742 66.3355C19.7546 66.8384 20.8321 66.0482 20.8321 64.2523C20.8321 62.8875 20.4729 62.5283 19.0362 62.5283C17.5995 62.5283 17.2403 62.8875 17.2403 64.2523Z" fill="url(#paint5_linear_401_988)"/>
<defs>
<linearGradient id="paint0_linear_401_988" x1="9.3924" y1="12.0501" x2="21.5229" y2="12.0501" gradientUnits="userSpaceOnUse">
<stop stop-color="#F5BA2A"/>
<stop offset="1" stop-color="#D4701E"/>
</linearGradient>
<linearGradient id="paint1_linear_401_988" x1="0" y1="41.5862" x2="91.97" y2="41.5862" gradientUnits="userSpaceOnUse">
<stop stop-color="#F5BA2A"/>
<stop offset="1" stop-color="#D4701E"/>
</linearGradient>
<linearGradient id="paint2_linear_401_988" x1="22.3468" y1="39.8773" x2="50.1963" y2="39.8773" gradientUnits="userSpaceOnUse">
<stop stop-color="#F5BA2A"/>
<stop offset="1" stop-color="#D4701E"/>
</linearGradient>
<linearGradient id="paint3_linear_401_988" x1="6.46513" y1="51.6718" x2="31.6288" y2="51.6718" gradientUnits="userSpaceOnUse">
<stop stop-color="#F5BA2A"/>
<stop offset="1" stop-color="#D4701E"/>
</linearGradient>
<linearGradient id="paint4_linear_401_988" x1="11.6596" y1="57.9781" x2="26.506" y2="57.9781" gradientUnits="userSpaceOnUse">
<stop stop-color="#F5BA2A"/>
<stop offset="1" stop-color="#D4701E"/>
</linearGradient>
<linearGradient id="paint5_linear_401_988" x1="17.2403" y1="64.5063" x2="20.8321" y2="64.5063" gradientUnits="userSpaceOnUse">
<stop stop-color="#F5BA2A"/>
<stop offset="1" stop-color="#D4701E"/>
</linearGradient>
</defs>
</svg>
