<svg width="100" height="89" viewBox="0 0 100 89" fill="none" xmlns="http://www.w3.org/2000/svg">
<path d="M65.0883 0.225713C63.1548 0.850664 61.7878 2.02245 60.7722 3.91683L60.2449 4.93237L60.1863 18.2516C60.1668 25.5948 60.0692 31.5904 59.991 31.5904C59.9129 31.5904 58.7997 31.3561 57.5108 31.0827C54.5813 30.4577 48.8005 30.2234 45.5195 30.6139C33.1767 32.0396 22.201 39.8515 16.4984 51.2178C14.8579 54.4793 13.7056 57.7993 13.1002 60.9436C12.6315 63.3653 12.2409 67.8962 12.4167 68.8922C12.5924 69.7905 13.1197 70.8452 13.7056 71.3725C14.8188 72.4271 14.5454 72.4075 28.7826 72.4075H41.9456L42.1604 73.0325C42.2971 73.384 42.6096 74.009 42.8635 74.3996L43.3517 75.1417H26.439H9.50673L9.62391 69.732C9.70203 66.3533 9.85827 63.5215 10.0536 62.2521C11.1082 55.3776 13.7837 49.0305 17.9826 43.4645C19.545 41.3748 23.4509 37.4689 25.5406 35.9065C31.1261 31.6881 37.5905 28.993 44.4844 27.997C46.7499 27.665 51.9839 27.5673 54.0735 27.8017C55.011 27.8993 55.2453 27.8603 55.714 27.4892C56.1242 27.1767 56.2413 26.9033 56.2413 26.3369C56.2413 24.755 55.6359 24.5793 50.0895 24.5793C46.3984 24.5597 43.7228 24.8136 40.8129 25.4386C27.9818 28.1727 16.8108 36.883 11.0105 48.6789C9.4872 51.7646 8.54978 54.3621 7.80765 57.4673C6.85069 61.3928 6.63587 63.502 6.49916 69.5367L6.38198 75.1417L5.87421 75.2589C2.94475 75.8448 1.12849 77.2704 0.28871 79.653C-0.140944 80.8444 -0.0823545 83.1098 0.405888 84.3988C0.93319 85.8244 2.28074 87.2892 3.66735 87.9727L4.78054 88.5195L12.2995 88.5781C16.4398 88.6172 20.0137 88.5781 20.2676 88.5195C21.3613 88.2461 21.4394 86.1955 20.3848 85.7073C20.0528 85.5706 17.7092 85.4924 12.9244 85.4924C6.53822 85.4924 5.89374 85.4534 5.15161 85.1214C3.94077 84.5745 3.25723 83.559 3.15958 82.1529C3.0424 80.7077 3.64782 79.5749 4.91725 78.8523L5.75703 78.3641H49.9918H94.2266L95.1055 78.8914C97.5662 80.3366 97.41 83.9496 94.832 85.1214C94.0509 85.4729 92.8205 85.4924 60.0301 85.4924H26.0289L25.5016 85.9026C24.818 86.4299 24.7985 87.5821 25.443 88.1875L25.9117 88.6172L60.5574 88.5781L95.2031 88.5195L96.3358 87.9336C98.6599 86.7619 99.9879 84.5745 99.9879 81.899C99.9879 78.3055 97.9763 76.0401 94.0899 75.2393L93.5431 75.1417V71.4701C93.5431 64.6152 93.0353 60.2796 91.6878 55.6315C90.2426 50.5538 87.8795 45.9057 84.5789 41.5896L83.2119 39.7929H88.4263C91.2972 39.7929 94.0118 39.6953 94.4805 39.5976C96.5702 39.1094 98.3474 37.7618 99.3434 35.8674L99.8902 34.8128V19.8726V4.93237L99.4411 4.01448C98.6989 2.54975 97.5662 1.3975 96.121 0.694427L94.8125 0.0499461L80.3605 0.0108866C68.7989 -0.0281728 65.7523 0.0304163 65.0883 0.225713ZM95.1445 3.76059C95.5937 4.0926 96.1991 4.75661 96.4725 5.22532L96.9608 6.10416V19.775V33.4653L96.453 34.4222C96.1015 35.1058 95.6913 35.5745 95.0078 35.9846L94.0704 36.5705H80.0871H66.1038L65.2836 36.1018C64.8149 35.8284 64.2095 35.2815 63.9165 34.8519L63.3697 34.0707L63.3111 19.9703L63.272 5.8698L63.897 4.91284C64.3071 4.34648 64.8735 3.79965 65.4008 3.52623L66.2796 3.07705L80.2824 3.11611L94.2852 3.1747L95.1445 3.76059ZM48.4294 46.1987V58.8539L47.7264 59.5374C46.5546 60.6311 44.1329 63.6192 43.1564 65.1229L42.2581 66.5096L34.6805 54.4793L27.0835 42.4489L27.9428 41.6873C29.1146 40.6717 32.1612 38.6797 34.1728 37.6056C38.274 35.3987 44.1134 33.641 47.5116 33.5629L48.4294 33.5434V46.1987ZM56.6319 34.1293C60.0106 34.8128 60.4207 34.9886 60.8503 35.9065C61.3776 37.1173 62.7252 38.3672 64.1899 39.0703C65.3617 39.5976 65.7523 39.6757 67.7248 39.7538L69.9317 39.8515L71.2206 40.8475C71.9237 41.3943 72.5877 41.9802 72.7049 42.1365C72.8416 42.3708 71.8065 44.1676 68.2521 49.8117C65.6937 53.8738 63.565 57.1353 63.5259 57.0962C63.4869 57.0572 63.7212 56.0612 64.0532 54.9089C64.9906 51.6865 64.6977 50.0851 62.9986 49.2843C62.1784 48.8938 60.616 48.8742 59.9129 49.2453C59.6395 49.4015 57.6279 51.0225 55.4797 52.8583L51.5542 56.2174V44.8511V33.4848L53.1752 33.6215C54.054 33.6996 55.6164 33.9145 56.6319 34.1293ZM79.6965 40.7108C84.0907 45.437 87.4889 51.6865 89.0317 57.8579C89.9887 61.7052 90.2426 63.834 90.3597 69.7124L90.4769 75.1417H73.5447C63.1158 75.1417 56.6319 75.0636 56.6319 74.9659C56.6319 74.8487 56.71 74.7316 56.8077 74.673C56.9053 74.6144 57.2569 74.0676 57.5889 73.4817L58.1943 72.4075H71.2792C85.4187 72.4075 85.1648 72.4271 86.278 71.3725C87.5084 70.2202 87.7623 68.9312 87.4889 65.2792C86.7858 56.1197 83.1728 48.0735 76.8452 41.6092L75.068 39.7929H76.9624H78.8372L79.6965 40.7108ZM78.5833 48.757C82.001 53.8348 83.8368 59.2054 84.3836 65.6307C84.5789 68.0133 84.5594 68.3649 84.286 68.7945L83.9735 69.2828H71.8651H59.7567L60.1082 68.7359C60.284 68.443 63.7798 62.8966 67.8615 56.4127L75.2828 44.6167L76.2983 45.7495C76.8647 46.3744 77.8998 47.722 78.5833 48.757ZM32.1807 56.4518C36.1843 62.7989 39.6411 68.3063 39.8559 68.6383L40.266 69.2828H28.1381H16.0101L15.7172 68.8141C15.4438 68.4039 15.4242 68.0329 15.6195 65.8455C16.1664 59.5374 18.0607 54.0301 21.4589 48.9523C22.7869 46.9798 24.5056 44.8706 24.7594 44.8706C24.8376 44.8706 28.1771 50.0851 32.1807 56.4518ZM61.5144 52.2529C61.5144 52.7606 57.5108 66.2752 56.9444 67.6227C56.046 69.8687 54.5813 72.5052 53.722 73.4426C52.1987 75.1417 49.6989 75.6299 47.6873 74.6339C45.1289 73.3645 44.0157 70.2397 45.2852 67.779C45.8515 66.6658 47.785 64.1074 49.2302 62.5841C50.441 61.3147 61.0652 52.1357 61.3776 52.1162C61.4558 52.0966 61.5144 52.1747 61.5144 52.2529Z" fill="url(#paint0_linear_401_935)"/>
<path d="M76.6303 9.59308C72.5486 10.3743 69.17 12.0538 66.5921 14.5536C65.264 15.8231 65.1273 16.3699 65.8695 17.2487C66.4358 17.8932 67.3537 17.9713 68.0373 17.405C68.2911 17.2097 69.0137 16.6042 69.6387 16.0965C71.0058 14.9833 74.1891 13.3818 75.9663 12.9327C78.0951 12.3858 81.2003 12.3468 83.4657 12.796C85.7702 13.2842 88.7778 14.6903 90.4964 16.0965C91.1214 16.6042 91.844 17.2097 92.0783 17.405C93.0743 18.2057 94.7148 17.4831 94.7148 16.2332C94.7148 15.5496 93.2111 14.0068 91.2776 12.7178C87.9185 10.4719 84.8523 9.51496 80.6535 9.39778C78.9544 9.35872 77.5287 9.41731 76.6303 9.59308Z" fill="url(#paint1_linear_401_935)"/>
<path d="M76.6498 15.2808C74.1305 15.9643 72.1385 17.0189 70.4198 18.5617C69.5801 19.3039 69.4434 19.5187 69.4434 20.1632C69.4434 20.7295 69.5605 21.003 69.9902 21.3545C70.7714 22.038 71.2596 21.9404 72.6462 20.8272C75.0289 18.9133 77.2748 18.093 80.0675 18.093C82.8603 18.093 85.1062 18.9133 87.4888 20.8272C88.934 21.9794 89.4223 22.0576 90.262 21.2373C90.7503 20.7295 90.8284 20.5342 90.7307 20.0265C90.5745 19.2648 90.0863 18.718 88.5239 17.6048C87.0787 16.5502 85.3015 15.7299 83.5633 15.3003C81.9814 14.9097 78.056 14.8902 76.6498 15.2808Z" fill="url(#paint2_linear_401_935)"/>
<path d="M78.1536 20.6701C76.8451 20.924 75.3023 21.7052 74.3258 22.6035C73.5641 23.3066 73.4274 23.5409 73.4274 24.1854C73.4274 24.7518 73.5446 25.0057 73.9352 25.3182C74.7554 25.9626 75.3413 25.8455 76.7475 24.7323C78.759 23.1504 81.4541 23.248 83.7001 24.9666C84.8132 25.8259 85.4382 25.9236 86.1999 25.3182C86.5905 25.0057 86.7076 24.7518 86.7076 24.1854C86.7076 23.5409 86.5709 23.3066 85.8093 22.6035C83.8954 20.8458 80.9854 20.1037 78.1536 20.6701Z" fill="url(#paint3_linear_401_935)"/>
<path d="M78.9348 27.1505C78.0364 28.088 78.5832 29.5527 79.9113 29.748C80.4971 29.8456 80.712 29.787 81.1221 29.3769C82.1767 28.3223 81.5127 26.7013 80.048 26.7013C79.5793 26.7013 79.2082 26.838 78.9348 27.1505Z" fill="url(#paint4_linear_401_935)"/>
<path d="M49.2693 68.5016C48.5076 68.8141 48.1756 70.0054 48.6248 70.8451C48.8787 71.3334 49.8942 71.6459 50.4606 71.431C51.0074 71.2357 51.5543 70.5131 51.5543 70.0249C51.5543 69.3804 51.1051 68.7164 50.5192 68.5016C49.8357 68.2672 49.8357 68.2672 49.2693 68.5016Z" fill="url(#paint5_linear_401_935)"/>
<defs>
<linearGradient id="paint0_linear_401_935" x1="-6.10352e-05" y1="44.3083" x2="99.9879" y2="44.3083" gradientUnits="userSpaceOnUse">
<stop stop-color="#F5BA2A"/>
<stop offset="1" stop-color="#D4701E"/>
</linearGradient>
<linearGradient id="paint1_linear_401_935" x1="65.4207" y1="13.5857" x2="94.7148" y2="13.5857" gradientUnits="userSpaceOnUse">
<stop stop-color="#F5BA2A"/>
<stop offset="1" stop-color="#D4701E"/>
</linearGradient>
<linearGradient id="paint2_linear_401_935" x1="69.4434" y1="18.3913" x2="90.7674" y2="18.3913" gradientUnits="userSpaceOnUse">
<stop stop-color="#F5BA2A"/>
<stop offset="1" stop-color="#D4701E"/>
</linearGradient>
<linearGradient id="paint3_linear_401_935" x1="73.4274" y1="23.097" x2="86.7076" y2="23.097" gradientUnits="userSpaceOnUse">
<stop stop-color="#F5BA2A"/>
<stop offset="1" stop-color="#D4701E"/>
</linearGradient>
<linearGradient id="paint4_linear_401_935" x1="78.4935" y1="28.2452" x2="81.6379" y2="28.2452" gradientUnits="userSpaceOnUse">
<stop stop-color="#F5BA2A"/>
<stop offset="1" stop-color="#D4701E"/>
</linearGradient>
<linearGradient id="paint5_linear_401_935" x1="48.4218" y1="69.9129" x2="51.5543" y2="69.9129" gradientUnits="userSpaceOnUse">
<stop stop-color="#F5BA2A"/>
<stop offset="1" stop-color="#D4701E"/>
</linearGradient>
</defs>
</svg>
