<svg width="79" height="100" viewBox="0 0 79 100" fill="none" xmlns="http://www.w3.org/2000/svg">
<path d="M36.7095 0.224767C34.5417 0.927837 32.9208 2.45115 31.8076 4.83378C31.4365 5.6345 30.792 6.78675 30.4014 7.37264C27.7063 11.3372 22.2771 13.5636 17.7071 12.5675C14.6019 11.884 14.0355 11.8254 12.8442 12.0207C10.2663 12.4894 8.07898 14.1495 6.90719 16.5321C6.34083 17.7234 6.28224 17.9577 6.28224 19.8717V21.9223L7.27826 24.0705C8.74299 27.2344 9.11405 29.1287 8.72346 31.7067C8.25474 34.7924 6.79002 37.546 4.58316 39.4404C3.91915 40.0068 2.9036 40.9052 2.33724 41.4325C-1.47105 44.9478 -0.475037 51.6465 4.23162 54.0487C4.81751 54.3416 5.9893 54.7322 6.80955 54.8884C11.6724 55.904 15.2073 59.0092 16.8283 63.7159C17.0626 64.3799 17.2189 65.6884 17.3165 67.739C17.4337 70.5903 17.4923 70.8637 18.0587 72.0746C18.8398 73.7737 20.246 75.1798 21.9646 75.9805C23.1754 76.5664 23.4293 76.6055 25.3237 76.6055C27.7845 76.6055 28.6828 76.2539 30.9873 74.4181C33.6824 72.2503 36.026 71.391 39.1898 71.391C42.3536 71.391 44.7558 72.2894 47.4899 74.4767C48.2516 75.0822 49.3453 75.8048 49.9311 76.0977C50.8686 76.5469 51.2592 76.6055 53.0559 76.6055C54.9503 76.6055 55.2042 76.5664 56.415 75.9805C58.1336 75.1798 59.5398 73.7737 60.321 72.0746C60.8873 70.8637 60.9459 70.5903 61.0631 67.739C61.1607 65.6884 61.317 64.3799 61.5513 63.7159C63.1723 59.0092 66.7072 55.904 71.5701 54.8884C72.3903 54.7322 73.5621 54.3416 74.148 54.0487C78.8547 51.6465 79.8507 44.9478 76.0424 41.4325C75.476 40.9052 74.4605 40.0068 73.7965 39.4404C71.5896 37.546 70.1249 34.7924 69.6562 31.7067C69.2656 29.1287 69.6366 27.2344 71.1014 24.0705L72.0974 21.9223V19.8717C72.0974 17.9577 72.0388 17.7234 71.4724 16.5321C70.2616 14.0713 68.0352 12.4308 65.3401 12.0012C64.2074 11.8254 63.8168 11.8645 62.1177 12.2746C57.2939 13.4464 53.0168 12.4308 49.6187 9.28655C48.486 8.23195 47.4509 6.72816 46.572 4.83378C45.6737 2.88081 44.3847 1.4942 42.7442 0.69348C41.592 0.127119 41.26 0.0489998 39.5023 0.00994042C38.2329 -0.029119 37.2368 0.0489998 36.7095 0.224767ZM41.5529 14.4033C50.6733 15.3212 58.3875 20.77 62.313 29.0702C69.3437 43.9323 60.5553 61.4114 44.2675 64.9267C43.0176 65.1806 41.7677 65.2782 39.1898 65.2782C36.6119 65.2782 35.362 65.1806 34.1121 64.9267C17.8243 61.4114 9.03593 43.9323 16.0666 29.0702C19.914 20.9263 27.7063 15.3408 36.4556 14.4229C38.8187 14.1885 39.307 14.1885 41.5529 14.4033Z" fill="url(#paint0_linear_400_928)"/>
<path d="M34.9128 19.308C31.1436 20.1087 27.7259 21.8663 24.9917 24.4443C22.9606 26.3582 21.8474 27.7839 20.7342 29.8931C18.7031 33.7014 17.961 37.4315 18.3321 41.8257C19.0937 51.0242 26.0854 58.6994 35.3034 60.5156C36.9048 60.8281 41.4748 60.8281 43.0762 60.5156C49.6773 59.2267 55.4581 54.7348 58.2313 48.7197C60.5163 43.7787 60.7701 37.6854 58.8953 32.5686C56.9033 27.1394 52.3724 22.5108 46.9431 20.343C43.3106 18.8978 38.7211 18.5072 34.9128 19.308ZM49.4039 33.8576C50.7319 34.4825 51.1225 36.1426 50.2241 37.2167C49.8335 37.6854 39.5804 45.3215 36.8658 47.1573C35.9674 47.7627 34.8933 47.7627 34.1316 47.1183C33.2723 46.3761 29.6007 41.025 29.4054 40.2438C29.0148 38.4861 30.9287 37.0995 32.6278 37.8612C32.9012 37.9979 33.702 38.9353 34.4246 39.9704C35.1472 41.0055 35.8112 41.9234 35.8893 42.021C35.9674 42.0991 38.4867 40.4 41.4748 38.2127C46.6892 34.4044 47.9587 33.5451 48.5055 33.5451C48.6422 33.5451 49.0523 33.6818 49.4039 33.8576Z" fill="url(#paint1_linear_400_928)"/>
<path d="M35.4793 76.6592C34.8934 76.9522 33.663 77.7724 32.7451 78.4755C30.7531 79.9988 28.761 80.8776 26.5932 81.1901C22.9802 81.7174 19.0743 80.4089 16.1839 77.7333C15.5785 77.167 15.0707 76.7373 15.0317 76.7764C14.9926 76.7959 13.4693 80.155 11.6335 84.2172C8.02049 92.2049 8.00096 92.2439 9.13368 92.8884C9.60239 93.1423 9.87581 93.1032 12.5514 92.3611C15.8714 91.4432 17.0042 91.3651 18.5665 91.951C20.2851 92.5759 21.1054 93.5719 22.7849 96.9115L24.2497 99.841L25.0699 99.8996C25.6949 99.9386 25.9292 99.88 26.1636 99.548C26.6128 98.9035 36.6901 76.5225 36.612 76.3077C36.5729 76.21 36.0652 76.3663 35.4793 76.6592Z" fill="url(#paint2_linear_400_928)"/>
<path d="M41.8069 76.5468C41.9436 77.1522 51.8256 98.9279 52.1967 99.5138C52.4506 99.8848 52.6263 99.9629 53.3099 99.9044L54.1301 99.8458L55.5949 96.9163C57.2744 93.5767 58.0947 92.5807 59.8133 91.9558C61.3756 91.3699 62.5084 91.448 65.8284 92.3659C68.504 93.108 68.7774 93.1471 69.2461 92.8932C70.3788 92.2487 70.3593 92.2096 66.7463 84.222C64.9105 80.1598 63.3872 76.8007 63.3481 76.7812C63.3091 76.7421 62.8013 77.1718 62.1959 77.7381C59.3055 80.4137 55.3996 81.7222 51.7866 81.1949C49.5797 80.8629 47.6463 80.0036 45.4589 78.3435C44.4239 77.5624 43.1544 76.7421 42.6271 76.5078L41.6897 76.1172L41.8069 76.5468Z" fill="url(#paint3_linear_400_928)"/>
<defs>
<linearGradient id="paint0_linear_400_928" x1="0" y1="38.3028" x2="78.3796" y2="38.3028" gradientUnits="userSpaceOnUse">
<stop stop-color="#F5BA2A"/>
<stop offset="1" stop-color="#D4701E"/>
</linearGradient>
<linearGradient id="paint1_linear_400_928" x1="18.2401" y1="39.8245" x2="60.1422" y2="39.8245" gradientUnits="userSpaceOnUse">
<stop stop-color="#F5BA2A"/>
<stop offset="1" stop-color="#D4701E"/>
</linearGradient>
<linearGradient id="paint2_linear_400_928" x1="8.47217" y1="88.0944" x2="36.6124" y2="88.0944" gradientUnits="userSpaceOnUse">
<stop stop-color="#F5BA2A"/>
<stop offset="1" stop-color="#D4701E"/>
</linearGradient>
<linearGradient id="paint3_linear_400_928" x1="41.6897" y1="88.0195" x2="69.9076" y2="88.0195" gradientUnits="userSpaceOnUse">
<stop stop-color="#F5BA2A"/>
<stop offset="1" stop-color="#D4701E"/>
</linearGradient>
</defs>
</svg>
