<svg width="92" height="116" viewBox="0 0 92 116" fill="none" xmlns="http://www.w3.org/2000/svg">
<path d="M42.6882 0.386806C39.4173 1.98509 37.596 6.1109 38.7111 9.38181C39.2686 11.0544 41.0156 13.1359 42.5024 13.805L43.8033 14.4369V45.3618V76.2868L41.9076 76.1382L40.0492 76.0266L40.0863 62.3855C40.1235 46.3282 40.0863 45.8079 38.5996 40.0094C37.2243 34.657 35.0313 30.8286 30.6453 26.1081C29.0098 24.3611 28.2665 23.3204 28.4523 22.9487C28.601 22.6513 28.7497 21.5362 28.8612 20.4955C29.0098 18.2653 28.2293 16.3697 26.2593 14.5112C23.8433 12.1695 19.3458 12.1695 17.0413 14.5112C13.0641 18.5255 13.8075 24.2496 18.6024 26.7028C20.3494 27.5948 23.3973 27.632 24.7354 26.7771L25.7018 26.1452L28.2665 28.8958C32.3923 33.3189 33.879 35.8836 34.9941 40.4555C35.849 43.8379 35.9977 44.73 36.2207 47.6663C36.5181 51.2346 36.5181 50.3797 36.4437 63.9094L36.3694 76.101H34.5109H32.6524L32.6896 67.0688C32.6896 62.1253 32.6153 57.5534 32.5038 56.9587C32.0577 54.0967 31.8347 53.1303 30.794 49.9337C28.0063 41.1989 23.1371 35.2889 16.6696 32.7986C16.5581 32.7614 15.9262 32.5756 15.2943 32.4269C14.5881 32.2782 14.0677 31.9065 14.0677 31.572C14.0677 30.5684 12.5066 28.4869 11.0198 27.5205C6.33648 24.5841 0.426536 27.6692 0.0176721 33.2446C-0.465531 40.7157 9.08702 43.9866 13.1385 37.7421C13.7704 36.7757 14.4022 35.9951 14.5509 35.9951C15.5917 35.9208 19.4201 38.3368 21.3529 40.2696C24.6238 43.6149 27.6717 49.8965 28.4151 54.8029C28.5266 55.8065 28.7497 56.9215 28.824 57.3304C28.9355 57.7393 29.0842 62.1624 29.1957 67.1803L29.3815 76.2868L27.2257 76.2497C24.8097 76.2497 23.2114 76.8444 22.6167 77.9223C22.0592 79.0374 22.0963 114.088 22.691 114.683C23.2486 115.24 24.5867 115.24 25.1442 114.683C25.4787 114.348 25.5903 109.962 25.5903 97.2132V80.1896H44.7325H63.8748V96.8415C63.8748 114.943 63.912 115.129 65.9191 115.129C67.9263 115.129 67.9634 114.943 67.9634 96.4698C67.9634 81.7879 67.8891 79.2976 67.3687 78.2568C66.6997 76.8072 65.3987 76.101 63.3916 76.101H61.942L62.1278 67.0688C62.388 55.6578 62.7225 53.5391 65.027 48.0009C67.1829 42.7972 70.3051 39.043 74.0964 37.1474C76.5124 35.9208 77.2186 35.8093 77.516 36.5899C78.408 39.1174 81.6418 41.3104 84.2436 41.1245C86.4366 40.9758 89.0013 39.4891 90.1536 37.7421C91.0456 36.4412 91.1943 35.8093 91.1943 33.6906C91.1943 31.4976 91.0456 30.9773 90.0792 29.602C88.481 27.3347 86.9198 26.5169 84.1693 26.5169C82.348 26.5169 81.6046 26.7399 80.378 27.5205C78.8169 28.4869 77.2558 30.5312 77.2558 31.572C77.2558 31.9065 76.8097 32.241 76.1779 32.3525C73.5017 32.9101 70.0449 34.9916 67.2944 37.7793C63.8376 41.3104 60.5295 48.1867 59.1914 54.7285C58.6711 57.2189 58.5967 59.3376 58.6339 67.2547L58.7082 76.101H56.8498H54.9541L54.8798 63.9094C54.8426 51.4576 54.8798 48.0752 55.1771 46.2539C56.5524 37.4447 57.8905 34.434 63.0571 28.8958L65.5846 26.1824L66.7368 26.8143C68.1864 27.5577 71.383 27.5948 72.7211 26.8886C76.2522 25.0302 77.8877 20.384 76.1779 17.0387C75.2858 15.2918 73.13 13.3589 71.7547 13.0616C71.1972 12.9501 70.5281 12.7642 70.2679 12.6899C70.0077 12.6156 69.0042 12.7271 68.0378 12.9501C66.0678 13.3589 64.2093 14.9201 63.0942 17.0759C62.3137 18.5998 62.165 21.4619 62.7969 22.6141C63.1314 23.246 62.8712 23.6921 61.0499 25.662C56.3666 30.6799 54.0992 34.6199 52.7611 39.8979C51.2372 45.7707 51.2372 46.1424 51.2372 62.4226L51.2743 76.0266L49.3787 76.1753L47.5202 76.2868V45.3618V14.3997L48.9327 13.6935C51.5345 12.3925 53.1328 9.49332 52.8726 6.66844C52.5009 2.76565 49.8247 0.200958 45.8848 0.0151111C44.621 -0.0592278 43.2086 0.126619 42.6882 0.386806ZM48.561 4.92148C50.1593 6.77995 49.3787 9.53049 46.9255 10.5341C43.7661 11.8722 40.5695 7.96937 42.5395 5.18166C43.9148 3.17451 46.8883 3.06301 48.561 4.92148ZM22.8025 16.6299C24.8469 17.4104 25.7389 19.1574 25.1814 21.2017C24.2522 24.5841 19.1599 24.5841 18.1935 21.2017C17.7103 19.4919 18.4909 17.6706 20.0148 16.9272C21.576 16.1467 21.576 16.1467 22.8025 16.6299ZM71.3458 17.0759C72.7955 17.8936 73.353 18.9344 73.2415 20.5326C73.0556 23.3947 69.5617 24.6956 67.2944 22.7628C65.1014 20.9043 65.6589 17.7449 68.4095 16.667C69.6361 16.1467 69.7476 16.1838 71.3458 17.0759ZM9.64456 30.9773C11.3915 32.5384 11.1313 35.5119 9.12419 36.7014C7.5259 37.7049 6.15063 37.6306 4.81253 36.4783C3.88329 35.6978 3.66028 35.2518 3.66028 34.0252C3.66028 33.2446 3.84613 32.241 4.03197 31.8693C4.92404 30.1595 8.19495 29.6392 9.64456 30.9773ZM85.8048 30.5684C87.18 31.2746 87.6632 32.1667 87.6632 34.0252C87.6632 36.5899 84.9127 38.151 82.5338 36.9244C79.1514 35.1774 80.3037 30.1595 84.0578 30.048C84.4295 30.0109 85.21 30.271 85.8048 30.5684Z" fill="url(#paint0_linear_399_925)"/>
<defs>
<linearGradient id="paint0_linear_399_925" x1="0" y1="57.5638" x2="91.1943" y2="57.5638" gradientUnits="userSpaceOnUse">
<stop stop-color="#F5BA2A"/>
<stop offset="1" stop-color="#D4701E"/>
</linearGradient>
</defs>
</svg>
