<svg width="100" height="96" viewBox="0 0 100 96" fill="none" xmlns="http://www.w3.org/2000/svg">
<path d="M31.1694 8.51413C29.3531 13.2208 27.8688 17.0877 27.8493 17.1072C27.8298 17.1267 23.6895 17.3806 18.6508 17.654C13.6121 17.9275 9.47185 18.1813 9.45232 18.2009C9.43279 18.2204 10.4679 22.1459 11.7373 26.9307C13.0067 31.7154 14.0613 35.719 14.0613 35.8362C14.0613 35.9534 10.8975 38.629 7.03064 41.7537C3.16375 44.898 -6.10352e-05 47.5345 -6.10352e-05 47.6321C-6.10352e-05 47.7298 3.16375 50.3663 7.03064 53.5106C10.8975 56.6353 14.0613 59.3109 14.0613 59.4281C14.0613 59.5453 13.0067 63.5489 11.7373 68.3336C10.4679 73.1184 9.43279 77.0439 9.45232 77.0634C9.47185 77.083 13.6121 77.3368 18.6508 77.6103C23.6895 77.8837 27.8298 78.1376 27.8493 78.1571C27.8688 78.1766 29.3531 82.024 31.1303 86.6916C32.927 91.3592 34.4308 95.2261 34.4699 95.2651C34.5089 95.3042 38.0243 93.0778 42.2818 90.3241L49.996 85.3245L57.7102 90.3241C61.9677 93.0778 65.4831 95.3042 65.5221 95.2651C65.5612 95.2261 67.065 91.3592 68.8617 86.6916C70.6389 82.024 72.1232 78.1766 72.1427 78.1571C72.1622 78.1376 76.3025 77.8837 81.3412 77.6103C86.3799 77.3368 90.5202 77.083 90.5397 77.0634C90.5592 77.0439 89.5241 73.1184 88.2547 68.3336C86.9853 63.5489 85.9307 59.5453 85.9307 59.4281C85.9307 59.3109 89.0945 56.6353 92.9614 53.5106C96.8282 50.3663 99.9921 47.7298 99.9921 47.6321C99.9921 47.5345 96.8282 44.898 92.9614 41.7537C89.0945 38.629 85.9307 35.9534 85.9307 35.8362C85.9307 35.719 86.9853 31.7154 88.2547 26.9307C89.5241 22.1459 90.5592 18.2204 90.5397 18.2009C90.5202 18.1813 86.3799 17.9275 81.3412 17.654C76.3025 17.3806 72.1622 17.1267 72.1427 17.1072C72.1232 17.0877 70.6389 13.2403 68.8617 8.57272C67.065 3.90512 65.5612 0.0382375 65.5221 -0.000821972C65.4831 -0.0398814 61.9677 2.18651 57.7102 4.9402L49.996 9.9398L42.4185 5.03784C38.2586 2.34274 34.7628 0.0968266 34.6456 0.0382375C34.5285 -0.000821972 33.0442 3.61217 31.1694 8.51413ZM49.8593 18.2399C49.9765 18.2985 52.7887 16.5994 56.0697 14.4707L62.0458 10.6038L64.5456 17.1463C65.9322 20.7593 67.104 23.7668 67.1626 23.845C67.2212 23.9035 70.4241 24.1379 74.2519 24.3332C78.0993 24.548 81.2826 24.7629 81.3412 24.8214C81.3998 24.88 80.6576 27.9071 79.6812 31.5397C78.7242 35.1917 77.9235 38.2969 77.9235 38.4532C77.943 38.6094 80.3842 40.7186 83.3918 43.1403C86.3799 45.562 88.8406 47.5736 88.8406 47.6321C88.8406 47.6907 86.3799 49.7023 83.3918 52.124C80.3842 54.5457 77.943 56.6549 77.9235 56.8111C77.9235 56.9674 78.7242 60.0726 79.6812 63.7246C80.6576 67.3572 81.3998 70.3843 81.3412 70.4429C81.3021 70.5014 78.3336 70.6967 74.7597 70.892C71.1857 71.0873 68.0024 71.2826 67.7094 71.3022C67.1626 71.3608 67.0845 71.5365 64.6433 77.8641C63.2762 81.4381 62.1044 84.4261 62.0458 84.4847C61.9677 84.5433 59.3312 82.9028 56.1479 80.8522C52.9645 78.782 50.2694 77.0634 50.1327 77.0048C49.996 76.9658 47.2033 78.6649 43.9223 80.7936L37.9462 84.6605L35.4464 78.118C34.0598 74.505 32.888 71.4975 32.8294 71.4193C32.7708 71.3608 29.5679 71.1264 25.7401 70.9311C21.9123 70.7358 18.7094 70.521 18.6508 70.4429C18.5922 70.3843 19.3344 67.3572 20.3108 63.7246C21.2678 60.0726 22.0685 56.9674 22.0685 56.8111C22.049 56.6549 19.6078 54.5457 16.6002 52.124C13.6121 49.7023 11.1514 47.6907 11.1514 47.6321C11.1514 47.5736 13.6121 45.562 16.6002 43.1403C19.6078 40.7186 22.049 38.6094 22.0685 38.4532C22.0685 38.2969 21.2678 35.1917 20.3108 31.5397C19.3344 27.9071 18.5922 24.88 18.6508 24.8214C18.6899 24.7629 21.8927 24.548 25.7206 24.3527C29.5679 24.1379 32.7708 23.9035 32.8294 23.845C32.9075 23.7668 34.0793 20.7593 35.4659 17.1463L37.9657 10.6038L43.7856 14.373C46.9884 16.4627 49.7226 18.2009 49.8593 18.2399Z" fill="url(#paint0_linear_401_948)"/>
<path d="M38.8641 28.642C36.2862 28.8373 33.8841 30.2434 32.4584 32.3917C31.4624 33.8759 31.0327 35.3407 31.0327 37.2546C31.0522 41.9612 34.7434 45.6719 39.45 45.6719C41.9498 45.6719 43.9028 44.8712 45.5823 43.1721C47.2814 41.4339 48.0431 39.5591 48.0431 37.0788C48.0431 32.1378 43.8247 28.2514 38.8641 28.642ZM40.5632 36.1414C41.1686 36.7077 41.1491 37.5475 40.5242 38.1529C39.1766 39.52 37.2041 37.567 38.5126 36.1609C39.0594 35.575 39.9578 35.575 40.5632 36.1414Z" fill="url(#paint1_linear_401_948)"/>
<path d="M47.4572 45.1891L31.9311 60.7152L34.4309 63.1955L36.9112 65.6953L52.4763 50.1301L68.0611 34.5454L65.6198 32.1042C64.2723 30.7567 63.1396 29.663 63.081 29.663C63.0224 29.663 55.9917 36.6546 47.4572 45.1891Z" fill="url(#paint2_linear_401_948)"/>
<path d="M57.9837 49.8958C55.2691 50.7161 53.0622 52.962 52.242 55.6962C51.8318 57.0828 51.8709 59.4263 52.3201 60.7544C53.5504 64.3478 56.6752 66.5938 60.4444 66.5938C63.0028 66.5742 64.7605 65.8516 66.4986 64.133C68.2173 62.3949 68.9399 60.6372 68.9594 58.0788C68.9594 54.3096 66.7135 51.1848 63.12 49.9544C61.831 49.5053 59.3117 49.4857 57.9837 49.8958ZM61.46 57.0437C62.3779 57.903 61.7334 59.5435 60.464 59.5435C59.1555 59.5435 58.5305 58.0397 59.4679 57.1023C60.0538 56.4969 60.8546 56.4774 61.46 57.0437Z" fill="url(#paint3_linear_401_948)"/>
<defs>
<linearGradient id="paint0_linear_401_948" x1="-6.10352e-05" y1="47.6321" x2="99.9921" y2="47.6321" gradientUnits="userSpaceOnUse">
<stop stop-color="#F5BA2A"/>
<stop offset="1" stop-color="#D4701E"/>
</linearGradient>
<linearGradient id="paint1_linear_401_948" x1="31.0327" y1="37.1434" x2="48.0431" y2="37.1434" gradientUnits="userSpaceOnUse">
<stop stop-color="#F5BA2A"/>
<stop offset="1" stop-color="#D4701E"/>
</linearGradient>
<linearGradient id="paint2_linear_401_948" x1="31.9311" y1="47.6792" x2="68.0611" y2="47.6792" gradientUnits="userSpaceOnUse">
<stop stop-color="#F5BA2A"/>
<stop offset="1" stop-color="#D4701E"/>
</linearGradient>
<linearGradient id="paint3_linear_401_948" x1="51.9573" y1="58.098" x2="68.9594" y2="58.098" gradientUnits="userSpaceOnUse">
<stop stop-color="#F5BA2A"/>
<stop offset="1" stop-color="#D4701E"/>
</linearGradient>
</defs>
</svg>
