<svg width="1690" height="940" viewBox="0 0 1690 940" fill="none" xmlns="http://www.w3.org/2000/svg">
<g clip-path="url(#clip0_62_31)">
<path d="M913.299 594.878C904.846 603.179 895.702 610.731 886.279 617.474C836.34 653.228 774.89 669.568 715.212 680.088C644.013 692.639 571.673 699.205 499.406 700.358C351.881 702.713 203.943 682.059 62.7556 639.185C45.44 633.929 28.2205 628.342 11.0499 622.625C9.90356 622.244 9.18652 624.228 10.3294 624.651C155.174 678.136 311.191 704.185 465.393 705.515C542.615 706.181 619.899 700.508 696.178 688.403C758.539 678.503 822.673 664.151 876.759 630.057C890.217 621.576 904.883 610.236 918.231 596.962C944.068 607.413 973.145 612.2 998.435 613.23C1067.42 616.041 1134.79 594.15 1196.98 566.196C1261.58 537.158 1322.09 500.042 1386.23 470.087C1449.63 440.484 1518.22 416.124 1589.08 417.385C1606.57 417.696 1623.91 419.695 1641.03 423.241C1644.34 423.929 1645.43 418.775 1642.1 418.086C1510.83 390.885 1386.98 462.092 1275.42 521.415C1216.26 552.872 1155.12 583.028 1089.56 598.492C1058.03 605.929 1025.49 609.686 993.097 607.766C969.318 606.355 944.411 602.31 921.817 593.32C953.295 560.583 975.849 517.139 954.405 475.727C941.482 450.772 913.614 437.25 886.786 448.49C860.09 459.67 845.184 487.321 848.312 515.732C852.659 555.185 879.746 580.087 913.294 594.877L913.299 594.878ZM854.808 492.714C862.257 461.625 899.268 438.092 929.064 455.539C960.549 473.976 962.042 515.295 948.713 545.35C941.175 562.349 929.989 577.733 916.891 591.259C908.376 587.535 900.238 583.063 892.668 577.71C866.241 559.002 846.876 525.808 854.808 492.714Z" fill="#BEBBBB"/>
</g>
<defs>
<clipPath id="clip0_62_31">
<rect width="1976" height="697" fill="white" transform="translate(87.4891) rotate(7.21092)"/>
</clipPath>
</defs>
</svg>
