<svg width="117" height="129" viewBox="0 0 117 129" fill="none" xmlns="http://www.w3.org/2000/svg">
<path d="M108.7 7.70001C104.5 3.5 100.5 4.37114e-06 100 4.34928e-06C99.5 4.32743e-06 89.9 9.1 78.8 20.2L58.5 40.5L38.2 20.2C27.1 9.1 17.5 7.43094e-07 17 7.21238e-07C15.7 6.64413e-07 0.500005 15.2 0.500005 16.5C0.500005 17.1 13.6 30.6 29.5 46.5L58.5 75.5L87.5 46.5C103.5 30.6 116.5 17 116.5 16.5C116.5 15.9 113 12 108.7 7.70001Z" fill="url(#paint0_linear_46_35)"/>
<path d="M108.3 61.2L100 53L79.3 73.7L58.5 94.5L37.7 73.7L17 53L8.50001 61.5L4.87382e-06 70L29.3 99.3L58.5 128.5L87.5 99.5C103.4 83.6 116.5 70.3 116.5 70C116.5 69.7 112.8 65.8 108.3 61.2Z" fill="url(#paint1_linear_46_35)"/>
<defs>
<linearGradient id="paint0_linear_46_35" x1="116.5" y1="37.75" x2="0.500004" y2="37.75" gradientUnits="userSpaceOnUse">
<stop stop-color="#FEFB95"/>
<stop offset="1" stop-color="#BDA34C"/>
</linearGradient>
<linearGradient id="paint1_linear_46_35" x1="116.5" y1="90.75" x2="3.96681e-06" y2="90.75" gradientUnits="userSpaceOnUse">
<stop stop-color="#FEFB95"/>
<stop offset="1" stop-color="#BDA34C"/>
</linearGradient>
</defs>
</svg>
